<?xml version="1.0" encoding="utf-8" standalone="no"?>
<!DOCTYPE svg PUBLIC "-//W3C//DTD SVG 1.1//EN"
  "http://www.w3.org/Graphics/SVG/1.1/DTD/svg11.dtd">
<svg xmlns:xlink="http://www.w3.org/1999/xlink" width="1152pt" height="432pt" viewBox="0 0 1152 432" xmlns="http://www.w3.org/2000/svg" version="1.1">
 <metadata>
  <rdf:RDF xmlns:dc="http://purl.org/dc/elements/1.1/" xmlns:cc="http://creativecommons.org/ns#" xmlns:rdf="http://www.w3.org/1999/02/22-rdf-syntax-ns#">
   <cc:Work>
    <dc:type rdf:resource="http://purl.org/dc/dcmitype/StillImage"/>
    <dc:date>2024-03-28T16:43:45.239292</dc:date>
    <dc:format>image/svg+xml</dc:format>
    <dc:creator>
     <cc:Agent>
      <dc:title>Matplotlib v3.7.5, https://matplotlib.org/</dc:title>
     </cc:Agent>
    </dc:creator>
   </cc:Work>
  </rdf:RDF>
 </metadata>
 <defs>
  <style type="text/css">*{stroke-linejoin: round; stroke-linecap: butt}</style>
 </defs>
 <g id="figure_1">
  <g id="patch_1">
   <path d="M 0 432 
L 1152 432 
L 1152 0 
L 0 0 
z
" style="fill: #ffffff"/>
  </g>
  <g id="axes_1">
   <g id="patch_2">
    <path d="M 144 384.48 
L 549.818182 384.48 
L 549.818182 51.84 
L 144 51.84 
z
" style="fill: #ffffff"/>
   </g>
   <g id="matplotlib.axis_1">
    <g id="xtick_1">
     <g id="line2d_1">
      <defs>
       <path id="mebfcf65b93" d="M 0 0 
L 0 3.5 
" style="stroke: #000000; stroke-width: 0.8"/>
      </defs>
      <g>
       <use xlink:href="#mebfcf65b93" x="162.446281" y="384.48" style="stroke: #000000; stroke-width: 0.8"/>
      </g>
     </g>
     <g id="text_1">
      <!-- 0 -->
      <g transform="translate(159.265031 399.078438) scale(0.1 -0.1)">
       <defs>
        <path id="DejaVuSans-30" d="M 2034 4250 
Q 1547 4250 1301 3770 
Q 1056 3291 1056 2328 
Q 1056 1369 1301 889 
Q 1547 409 2034 409 
Q 2525 409 2770 889 
Q 3016 1369 3016 2328 
Q 3016 3291 2770 3770 
Q 2525 4250 2034 4250 
z
M 2034 4750 
Q 2819 4750 3233 4129 
Q 3647 3509 3647 2328 
Q 3647 1150 3233 529 
Q 2819 -91 2034 -91 
Q 1250 -91 836 529 
Q 422 1150 422 2328 
Q 422 3509 836 4129 
Q 1250 4750 2034 4750 
z
" transform="scale(0.015625)"/>
       </defs>
       <use xlink:href="#DejaVuSans-30"/>
      </g>
     </g>
    </g>
    <g id="xtick_2">
     <g id="line2d_2">
      <g>
       <use xlink:href="#mebfcf65b93" x="244.247971" y="384.48" style="stroke: #000000; stroke-width: 0.8"/>
      </g>
     </g>
     <g id="text_2">
      <!-- 100 -->
      <g transform="translate(234.704221 399.078438) scale(0.1 -0.1)">
       <defs>
        <path id="DejaVuSans-31" d="M 794 531 
L 1825 531 
L 1825 4091 
L 703 3866 
L 703 4441 
L 1819 4666 
L 2450 4666 
L 2450 531 
L 3481 531 
L 3481 0 
L 794 0 
L 794 531 
z
" transform="scale(0.015625)"/>
       </defs>
       <use xlink:href="#DejaVuSans-31"/>
       <use xlink:href="#DejaVuSans-30" x="63.623047"/>
       <use xlink:href="#DejaVuSans-30" x="127.246094"/>
      </g>
     </g>
    </g>
    <g id="xtick_3">
     <g id="line2d_3">
      <g>
       <use xlink:href="#mebfcf65b93" x="326.04966" y="384.48" style="stroke: #000000; stroke-width: 0.8"/>
      </g>
     </g>
     <g id="text_3">
      <!-- 200 -->
      <g transform="translate(316.50591 399.078438) scale(0.1 -0.1)">
       <defs>
        <path id="DejaVuSans-32" d="M 1228 531 
L 3431 531 
L 3431 0 
L 469 0 
L 469 531 
Q 828 903 1448 1529 
Q 2069 2156 2228 2338 
Q 2531 2678 2651 2914 
Q 2772 3150 2772 3378 
Q 2772 3750 2511 3984 
Q 2250 4219 1831 4219 
Q 1534 4219 1204 4116 
Q 875 4013 500 3803 
L 500 4441 
Q 881 4594 1212 4672 
Q 1544 4750 1819 4750 
Q 2544 4750 2975 4387 
Q 3406 4025 3406 3419 
Q 3406 3131 3298 2873 
Q 3191 2616 2906 2266 
Q 2828 2175 2409 1742 
Q 1991 1309 1228 531 
z
" transform="scale(0.015625)"/>
       </defs>
       <use xlink:href="#DejaVuSans-32"/>
       <use xlink:href="#DejaVuSans-30" x="63.623047"/>
       <use xlink:href="#DejaVuSans-30" x="127.246094"/>
      </g>
     </g>
    </g>
    <g id="xtick_4">
     <g id="line2d_4">
      <g>
       <use xlink:href="#mebfcf65b93" x="407.85135" y="384.48" style="stroke: #000000; stroke-width: 0.8"/>
      </g>
     </g>
     <g id="text_4">
      <!-- 300 -->
      <g transform="translate(398.3076 399.078438) scale(0.1 -0.1)">
       <defs>
        <path id="DejaVuSans-33" d="M 2597 2516 
Q 3050 2419 3304 2112 
Q 3559 1806 3559 1356 
Q 3559 666 3084 287 
Q 2609 -91 1734 -91 
Q 1441 -91 1130 -33 
Q 819 25 488 141 
L 488 750 
Q 750 597 1062 519 
Q 1375 441 1716 441 
Q 2309 441 2620 675 
Q 2931 909 2931 1356 
Q 2931 1769 2642 2001 
Q 2353 2234 1838 2234 
L 1294 2234 
L 1294 2753 
L 1863 2753 
Q 2328 2753 2575 2939 
Q 2822 3125 2822 3475 
Q 2822 3834 2567 4026 
Q 2313 4219 1838 4219 
Q 1578 4219 1281 4162 
Q 984 4106 628 3988 
L 628 4550 
Q 988 4650 1302 4700 
Q 1616 4750 1894 4750 
Q 2613 4750 3031 4423 
Q 3450 4097 3450 3541 
Q 3450 3153 3228 2886 
Q 3006 2619 2597 2516 
z
" transform="scale(0.015625)"/>
       </defs>
       <use xlink:href="#DejaVuSans-33"/>
       <use xlink:href="#DejaVuSans-30" x="63.623047"/>
       <use xlink:href="#DejaVuSans-30" x="127.246094"/>
      </g>
     </g>
    </g>
    <g id="xtick_5">
     <g id="line2d_5">
      <g>
       <use xlink:href="#mebfcf65b93" x="489.653039" y="384.48" style="stroke: #000000; stroke-width: 0.8"/>
      </g>
     </g>
     <g id="text_5">
      <!-- 400 -->
      <g transform="translate(480.109289 399.078438) scale(0.1 -0.1)">
       <defs>
        <path id="DejaVuSans-34" d="M 2419 4116 
L 825 1625 
L 2419 1625 
L 2419 4116 
z
M 2253 4666 
L 3047 4666 
L 3047 1625 
L 3713 1625 
L 3713 1100 
L 3047 1100 
L 3047 0 
L 2419 0 
L 2419 1100 
L 313 1100 
L 313 1709 
L 2253 4666 
z
" transform="scale(0.015625)"/>
       </defs>
       <use xlink:href="#DejaVuSans-34"/>
       <use xlink:href="#DejaVuSans-30" x="63.623047"/>
       <use xlink:href="#DejaVuSans-30" x="127.246094"/>
      </g>
     </g>
    </g>
    <g id="text_6">
     <!-- Index -->
     <g transform="translate(333.142685 412.756563) scale(0.1 -0.1)">
      <defs>
       <path id="DejaVuSans-49" d="M 628 4666 
L 1259 4666 
L 1259 0 
L 628 0 
L 628 4666 
z
" transform="scale(0.015625)"/>
       <path id="DejaVuSans-6e" d="M 3513 2113 
L 3513 0 
L 2938 0 
L 2938 2094 
Q 2938 2591 2744 2837 
Q 2550 3084 2163 3084 
Q 1697 3084 1428 2787 
Q 1159 2491 1159 1978 
L 1159 0 
L 581 0 
L 581 3500 
L 1159 3500 
L 1159 2956 
Q 1366 3272 1645 3428 
Q 1925 3584 2291 3584 
Q 2894 3584 3203 3211 
Q 3513 2838 3513 2113 
z
" transform="scale(0.015625)"/>
       <path id="DejaVuSans-64" d="M 2906 2969 
L 2906 4863 
L 3481 4863 
L 3481 0 
L 2906 0 
L 2906 525 
Q 2725 213 2448 61 
Q 2172 -91 1784 -91 
Q 1150 -91 751 415 
Q 353 922 353 1747 
Q 353 2572 751 3078 
Q 1150 3584 1784 3584 
Q 2172 3584 2448 3432 
Q 2725 3281 2906 2969 
z
M 947 1747 
Q 947 1113 1208 752 
Q 1469 391 1925 391 
Q 2381 391 2643 752 
Q 2906 1113 2906 1747 
Q 2906 2381 2643 2742 
Q 2381 3103 1925 3103 
Q 1469 3103 1208 2742 
Q 947 2381 947 1747 
z
" transform="scale(0.015625)"/>
       <path id="DejaVuSans-65" d="M 3597 1894 
L 3597 1613 
L 953 1613 
Q 991 1019 1311 708 
Q 1631 397 2203 397 
Q 2534 397 2845 478 
Q 3156 559 3463 722 
L 3463 178 
Q 3153 47 2828 -22 
Q 2503 -91 2169 -91 
Q 1331 -91 842 396 
Q 353 884 353 1716 
Q 353 2575 817 3079 
Q 1281 3584 2069 3584 
Q 2775 3584 3186 3129 
Q 3597 2675 3597 1894 
z
M 3022 2063 
Q 3016 2534 2758 2815 
Q 2500 3097 2075 3097 
Q 1594 3097 1305 2825 
Q 1016 2553 972 2059 
L 3022 2063 
z
" transform="scale(0.015625)"/>
       <path id="DejaVuSans-78" d="M 3513 3500 
L 2247 1797 
L 3578 0 
L 2900 0 
L 1881 1375 
L 863 0 
L 184 0 
L 1544 1831 
L 300 3500 
L 978 3500 
L 1906 2253 
L 2834 3500 
L 3513 3500 
z
" transform="scale(0.015625)"/>
      </defs>
      <use xlink:href="#DejaVuSans-49"/>
      <use xlink:href="#DejaVuSans-6e" x="29.492188"/>
      <use xlink:href="#DejaVuSans-64" x="92.871094"/>
      <use xlink:href="#DejaVuSans-65" x="156.347656"/>
      <use xlink:href="#DejaVuSans-78" x="216.121094"/>
     </g>
    </g>
   </g>
   <g id="matplotlib.axis_2">
    <g id="ytick_1">
     <g id="line2d_6">
      <defs>
       <path id="mb6e85b8e37" d="M 0 0 
L -3.5 0 
" style="stroke: #000000; stroke-width: 0.8"/>
      </defs>
      <g>
       <use xlink:href="#mb6e85b8e37" x="144" y="357.991579" style="stroke: #000000; stroke-width: 0.8"/>
      </g>
     </g>
     <g id="text_7">
      <!-- 60 -->
      <g transform="translate(124.275 361.790798) scale(0.1 -0.1)">
       <defs>
        <path id="DejaVuSans-36" d="M 2113 2584 
Q 1688 2584 1439 2293 
Q 1191 2003 1191 1497 
Q 1191 994 1439 701 
Q 1688 409 2113 409 
Q 2538 409 2786 701 
Q 3034 994 3034 1497 
Q 3034 2003 2786 2293 
Q 2538 2584 2113 2584 
z
M 3366 4563 
L 3366 3988 
Q 3128 4100 2886 4159 
Q 2644 4219 2406 4219 
Q 1781 4219 1451 3797 
Q 1122 3375 1075 2522 
Q 1259 2794 1537 2939 
Q 1816 3084 2150 3084 
Q 2853 3084 3261 2657 
Q 3669 2231 3669 1497 
Q 3669 778 3244 343 
Q 2819 -91 2113 -91 
Q 1303 -91 875 529 
Q 447 1150 447 2328 
Q 447 3434 972 4092 
Q 1497 4750 2381 4750 
Q 2619 4750 2861 4703 
Q 3103 4656 3366 4563 
z
" transform="scale(0.015625)"/>
       </defs>
       <use xlink:href="#DejaVuSans-36"/>
       <use xlink:href="#DejaVuSans-30" x="63.623047"/>
      </g>
     </g>
    </g>
    <g id="ytick_2">
     <g id="line2d_7">
      <g>
       <use xlink:href="#mb6e85b8e37" x="144" y="312.517895" style="stroke: #000000; stroke-width: 0.8"/>
      </g>
     </g>
     <g id="text_8">
      <!-- 80 -->
      <g transform="translate(124.275 316.317113) scale(0.1 -0.1)">
       <defs>
        <path id="DejaVuSans-38" d="M 2034 2216 
Q 1584 2216 1326 1975 
Q 1069 1734 1069 1313 
Q 1069 891 1326 650 
Q 1584 409 2034 409 
Q 2484 409 2743 651 
Q 3003 894 3003 1313 
Q 3003 1734 2745 1975 
Q 2488 2216 2034 2216 
z
M 1403 2484 
Q 997 2584 770 2862 
Q 544 3141 544 3541 
Q 544 4100 942 4425 
Q 1341 4750 2034 4750 
Q 2731 4750 3128 4425 
Q 3525 4100 3525 3541 
Q 3525 3141 3298 2862 
Q 3072 2584 2669 2484 
Q 3125 2378 3379 2068 
Q 3634 1759 3634 1313 
Q 3634 634 3220 271 
Q 2806 -91 2034 -91 
Q 1263 -91 848 271 
Q 434 634 434 1313 
Q 434 1759 690 2068 
Q 947 2378 1403 2484 
z
M 1172 3481 
Q 1172 3119 1398 2916 
Q 1625 2713 2034 2713 
Q 2441 2713 2670 2916 
Q 2900 3119 2900 3481 
Q 2900 3844 2670 4047 
Q 2441 4250 2034 4250 
Q 1625 4250 1398 4047 
Q 1172 3844 1172 3481 
z
" transform="scale(0.015625)"/>
       </defs>
       <use xlink:href="#DejaVuSans-38"/>
       <use xlink:href="#DejaVuSans-30" x="63.623047"/>
      </g>
     </g>
    </g>
    <g id="ytick_3">
     <g id="line2d_8">
      <g>
       <use xlink:href="#mb6e85b8e37" x="144" y="267.044211" style="stroke: #000000; stroke-width: 0.8"/>
      </g>
     </g>
     <g id="text_9">
      <!-- 100 -->
      <g transform="translate(117.9125 270.843429) scale(0.1 -0.1)">
       <use xlink:href="#DejaVuSans-31"/>
       <use xlink:href="#DejaVuSans-30" x="63.623047"/>
       <use xlink:href="#DejaVuSans-30" x="127.246094"/>
      </g>
     </g>
    </g>
    <g id="ytick_4">
     <g id="line2d_9">
      <g>
       <use xlink:href="#mb6e85b8e37" x="144" y="221.570526" style="stroke: #000000; stroke-width: 0.8"/>
      </g>
     </g>
     <g id="text_10">
      <!-- 120 -->
      <g transform="translate(117.9125 225.369745) scale(0.1 -0.1)">
       <use xlink:href="#DejaVuSans-31"/>
       <use xlink:href="#DejaVuSans-32" x="63.623047"/>
       <use xlink:href="#DejaVuSans-30" x="127.246094"/>
      </g>
     </g>
    </g>
    <g id="ytick_5">
     <g id="line2d_10">
      <g>
       <use xlink:href="#mb6e85b8e37" x="144" y="176.096842" style="stroke: #000000; stroke-width: 0.8"/>
      </g>
     </g>
     <g id="text_11">
      <!-- 140 -->
      <g transform="translate(117.9125 179.896061) scale(0.1 -0.1)">
       <use xlink:href="#DejaVuSans-31"/>
       <use xlink:href="#DejaVuSans-34" x="63.623047"/>
       <use xlink:href="#DejaVuSans-30" x="127.246094"/>
      </g>
     </g>
    </g>
    <g id="ytick_6">
     <g id="line2d_11">
      <g>
       <use xlink:href="#mb6e85b8e37" x="144" y="130.623158" style="stroke: #000000; stroke-width: 0.8"/>
      </g>
     </g>
     <g id="text_12">
      <!-- 160 -->
      <g transform="translate(117.9125 134.422377) scale(0.1 -0.1)">
       <use xlink:href="#DejaVuSans-31"/>
       <use xlink:href="#DejaVuSans-36" x="63.623047"/>
       <use xlink:href="#DejaVuSans-30" x="127.246094"/>
      </g>
     </g>
    </g>
    <g id="ytick_7">
     <g id="line2d_12">
      <g>
       <use xlink:href="#mb6e85b8e37" x="144" y="85.149474" style="stroke: #000000; stroke-width: 0.8"/>
      </g>
     </g>
     <g id="text_13">
      <!-- 180 -->
      <g transform="translate(117.9125 88.948692) scale(0.1 -0.1)">
       <use xlink:href="#DejaVuSans-31"/>
       <use xlink:href="#DejaVuSans-38" x="63.623047"/>
       <use xlink:href="#DejaVuSans-30" x="127.246094"/>
      </g>
     </g>
    </g>
    <g id="text_14">
     <!-- QRS duration -->
     <g transform="translate(111.832812 251.373281) rotate(-90) scale(0.1 -0.1)">
      <defs>
       <path id="DejaVuSans-51" d="M 2522 4238 
Q 1834 4238 1429 3725 
Q 1025 3213 1025 2328 
Q 1025 1447 1429 934 
Q 1834 422 2522 422 
Q 3209 422 3611 934 
Q 4013 1447 4013 2328 
Q 4013 3213 3611 3725 
Q 3209 4238 2522 4238 
z
M 3406 84 
L 4238 -825 
L 3475 -825 
L 2784 -78 
Q 2681 -84 2626 -87 
Q 2572 -91 2522 -91 
Q 1538 -91 948 567 
Q 359 1225 359 2328 
Q 359 3434 948 4092 
Q 1538 4750 2522 4750 
Q 3503 4750 4090 4092 
Q 4678 3434 4678 2328 
Q 4678 1516 4351 937 
Q 4025 359 3406 84 
z
" transform="scale(0.015625)"/>
       <path id="DejaVuSans-52" d="M 2841 2188 
Q 3044 2119 3236 1894 
Q 3428 1669 3622 1275 
L 4263 0 
L 3584 0 
L 2988 1197 
Q 2756 1666 2539 1819 
Q 2322 1972 1947 1972 
L 1259 1972 
L 1259 0 
L 628 0 
L 628 4666 
L 2053 4666 
Q 2853 4666 3247 4331 
Q 3641 3997 3641 3322 
Q 3641 2881 3436 2590 
Q 3231 2300 2841 2188 
z
M 1259 4147 
L 1259 2491 
L 2053 2491 
Q 2509 2491 2742 2702 
Q 2975 2913 2975 3322 
Q 2975 3731 2742 3939 
Q 2509 4147 2053 4147 
L 1259 4147 
z
" transform="scale(0.015625)"/>
       <path id="DejaVuSans-53" d="M 3425 4513 
L 3425 3897 
Q 3066 4069 2747 4153 
Q 2428 4238 2131 4238 
Q 1616 4238 1336 4038 
Q 1056 3838 1056 3469 
Q 1056 3159 1242 3001 
Q 1428 2844 1947 2747 
L 2328 2669 
Q 3034 2534 3370 2195 
Q 3706 1856 3706 1288 
Q 3706 609 3251 259 
Q 2797 -91 1919 -91 
Q 1588 -91 1214 -16 
Q 841 59 441 206 
L 441 856 
Q 825 641 1194 531 
Q 1563 422 1919 422 
Q 2459 422 2753 634 
Q 3047 847 3047 1241 
Q 3047 1584 2836 1778 
Q 2625 1972 2144 2069 
L 1759 2144 
Q 1053 2284 737 2584 
Q 422 2884 422 3419 
Q 422 4038 858 4394 
Q 1294 4750 2059 4750 
Q 2388 4750 2728 4690 
Q 3069 4631 3425 4513 
z
" transform="scale(0.015625)"/>
       <path id="DejaVuSans-20" transform="scale(0.015625)"/>
       <path id="DejaVuSans-75" d="M 544 1381 
L 544 3500 
L 1119 3500 
L 1119 1403 
Q 1119 906 1312 657 
Q 1506 409 1894 409 
Q 2359 409 2629 706 
Q 2900 1003 2900 1516 
L 2900 3500 
L 3475 3500 
L 3475 0 
L 2900 0 
L 2900 538 
Q 2691 219 2414 64 
Q 2138 -91 1772 -91 
Q 1169 -91 856 284 
Q 544 659 544 1381 
z
M 1991 3584 
L 1991 3584 
z
" transform="scale(0.015625)"/>
       <path id="DejaVuSans-72" d="M 2631 2963 
Q 2534 3019 2420 3045 
Q 2306 3072 2169 3072 
Q 1681 3072 1420 2755 
Q 1159 2438 1159 1844 
L 1159 0 
L 581 0 
L 581 3500 
L 1159 3500 
L 1159 2956 
Q 1341 3275 1631 3429 
Q 1922 3584 2338 3584 
Q 2397 3584 2469 3576 
Q 2541 3569 2628 3553 
L 2631 2963 
z
" transform="scale(0.015625)"/>
       <path id="DejaVuSans-61" d="M 2194 1759 
Q 1497 1759 1228 1600 
Q 959 1441 959 1056 
Q 959 750 1161 570 
Q 1363 391 1709 391 
Q 2188 391 2477 730 
Q 2766 1069 2766 1631 
L 2766 1759 
L 2194 1759 
z
M 3341 1997 
L 3341 0 
L 2766 0 
L 2766 531 
Q 2569 213 2275 61 
Q 1981 -91 1556 -91 
Q 1019 -91 701 211 
Q 384 513 384 1019 
Q 384 1609 779 1909 
Q 1175 2209 1959 2209 
L 2766 2209 
L 2766 2266 
Q 2766 2663 2505 2880 
Q 2244 3097 1772 3097 
Q 1472 3097 1187 3025 
Q 903 2953 641 2809 
L 641 3341 
Q 956 3463 1253 3523 
Q 1550 3584 1831 3584 
Q 2591 3584 2966 3190 
Q 3341 2797 3341 1997 
z
" transform="scale(0.015625)"/>
       <path id="DejaVuSans-74" d="M 1172 4494 
L 1172 3500 
L 2356 3500 
L 2356 3053 
L 1172 3053 
L 1172 1153 
Q 1172 725 1289 603 
Q 1406 481 1766 481 
L 2356 481 
L 2356 0 
L 1766 0 
Q 1100 0 847 248 
Q 594 497 594 1153 
L 594 3053 
L 172 3053 
L 172 3500 
L 594 3500 
L 594 4494 
L 1172 4494 
z
" transform="scale(0.015625)"/>
       <path id="DejaVuSans-69" d="M 603 3500 
L 1178 3500 
L 1178 0 
L 603 0 
L 603 3500 
z
M 603 4863 
L 1178 4863 
L 1178 4134 
L 603 4134 
L 603 4863 
z
" transform="scale(0.015625)"/>
       <path id="DejaVuSans-6f" d="M 1959 3097 
Q 1497 3097 1228 2736 
Q 959 2375 959 1747 
Q 959 1119 1226 758 
Q 1494 397 1959 397 
Q 2419 397 2687 759 
Q 2956 1122 2956 1747 
Q 2956 2369 2687 2733 
Q 2419 3097 1959 3097 
z
M 1959 3584 
Q 2709 3584 3137 3096 
Q 3566 2609 3566 1747 
Q 3566 888 3137 398 
Q 2709 -91 1959 -91 
Q 1206 -91 779 398 
Q 353 888 353 1747 
Q 353 2609 779 3096 
Q 1206 3584 1959 3584 
z
" transform="scale(0.015625)"/>
      </defs>
      <use xlink:href="#DejaVuSans-51"/>
      <use xlink:href="#DejaVuSans-52" x="78.710938"/>
      <use xlink:href="#DejaVuSans-53" x="148.193359"/>
      <use xlink:href="#DejaVuSans-20" x="211.669922"/>
      <use xlink:href="#DejaVuSans-64" x="243.457031"/>
      <use xlink:href="#DejaVuSans-75" x="306.933594"/>
      <use xlink:href="#DejaVuSans-72" x="370.3125"/>
      <use xlink:href="#DejaVuSans-61" x="411.425781"/>
      <use xlink:href="#DejaVuSans-74" x="472.705078"/>
      <use xlink:href="#DejaVuSans-69" x="511.914062"/>
      <use xlink:href="#DejaVuSans-6f" x="539.697266"/>
      <use xlink:href="#DejaVuSans-6e" x="600.878906"/>
     </g>
    </g>
   </g>
   <g id="line2d_13">
    <path d="M 164.900332 267.044211 
L 167.354382 319.338947 
L 168.172399 317.065263 
L 168.990416 303.423158 
L 171.444467 319.338947 
L 173.898518 319.338947 
L 174.716534 323.886316 
L 176.352568 335.254737 
L 177.170585 287.507368 
L 177.988602 307.970526 
L 178.806619 305.696842 
L 179.624636 289.781053 
L 180.442653 332.981053 
L 181.26067 323.886316 
L 182.078686 307.970526 
L 187.804805 332.981053 
L 188.622822 323.886316 
L 189.440839 317.065263 
L 191.076872 337.528421 
L 191.894889 260.223158 
L 193.530923 312.517895 
L 195.166957 312.517895 
L 195.984974 314.791579 
L 196.802991 285.233684 
L 197.621007 303.423158 
L 198.439024 298.875789 
L 200.893075 328.433684 
L 202.529109 312.517895 
L 203.347126 310.244211 
L 204.165143 305.696842 
L 208.255227 314.791579 
L 209.073244 289.781053 
L 210.709278 305.696842 
L 213.163329 321.612632 
L 213.981345 307.970526 
L 215.617379 312.517895 
L 217.253413 332.981053 
L 218.889447 296.602105 
L 221.343497 282.96 
L 222.979531 296.602105 
L 226.251599 289.781053 
L 227.069616 317.065263 
L 227.887633 305.696842 
L 228.70565 285.233684 
L 236.067802 303.423158 
L 237.703835 314.791579 
L 240.157886 296.602105 
L 242.611937 303.423158 
L 243.429954 317.065263 
L 245.884004 271.591579 
L 246.702021 298.875789 
L 249.974089 317.065263 
L 251.610123 280.686316 
L 252.428139 307.970526 
L 253.246156 317.065263 
L 254.064173 314.791579 
L 254.88219 296.602105 
L 256.518224 323.886316 
L 258.154258 276.138947 
L 258.972275 294.328421 
L 259.790292 289.781053 
L 260.608308 326.16 
L 261.426325 301.149474 
L 262.244342 289.781053 
L 263.062359 332.981053 
L 263.880376 323.886316 
L 264.698393 319.338947 
L 265.51641 296.602105 
L 267.152444 326.16 
L 267.970461 269.317895 
L 268.788477 292.054737 
L 269.606494 305.696842 
L 270.424511 317.065263 
L 271.242528 267.044211 
L 272.878562 296.602105 
L 273.696579 314.791579 
L 275.332613 312.517895 
L 276.150629 301.149474 
L 276.968646 310.244211 
L 278.60468 278.412632 
L 279.422697 307.970526 
L 282.694765 298.875789 
L 283.512782 312.517895 
L 285.148815 301.149474 
L 285.966832 242.033684 
L 286.784849 292.054737 
L 289.2389 285.233684 
L 290.056917 323.886316 
L 291.69295 305.696842 
L 292.510967 303.423158 
L 293.328984 287.507368 
L 294.147001 310.244211 
L 294.965018 237.486316 
L 295.783035 285.233684 
L 296.601052 310.244211 
L 297.419069 326.16 
L 298.237086 317.065263 
L 299.055103 312.517895 
L 301.509153 253.402105 
L 302.32717 278.412632 
L 303.145187 267.044211 
L 306.417255 317.065263 
L 307.235271 319.338947 
L 308.053288 296.602105 
L 309.689322 301.149474 
L 311.325356 285.233684 
L 317.869491 328.433684 
L 318.687508 310.244211 
L 321.141559 278.412632 
L 321.959576 328.433684 
L 322.777592 278.412632 
L 325.231643 273.865263 
L 326.867677 353.444211 
L 327.685694 298.875789 
L 328.503711 332.981053 
L 330.139745 339.802105 
L 330.957761 289.781053 
L 332.593795 298.875789 
L 335.047846 282.96 
L 338.319914 314.791579 
L 342.409998 317.065263 
L 343.228015 296.602105 
L 344.864049 303.423158 
L 347.318099 301.149474 
L 348.954133 303.423158 
L 349.77215 301.149474 
L 350.590167 319.338947 
L 352.226201 326.16 
L 353.044218 292.054737 
L 353.862235 292.054737 
L 357.134302 310.244211 
L 357.952319 303.423158 
L 358.770336 276.138947 
L 359.588353 289.781053 
L 360.40637 271.591579 
L 362.042403 282.96 
L 363.678437 301.149474 
L 364.496454 342.075789 
L 366.132488 337.528421 
L 370.222572 269.317895 
L 371.040589 314.791579 
L 375.130674 312.517895 
L 376.766708 289.781053 
L 377.584724 310.244211 
L 378.402741 289.781053 
L 379.220758 317.065263 
L 380.856792 310.244211 
L 381.674809 289.781053 
L 382.492826 301.149474 
L 383.310843 314.791579 
L 384.12886 355.717895 
L 385.764893 314.791579 
L 386.58291 305.696842 
L 388.218944 317.065263 
L 390.672995 296.602105 
L 391.491012 287.507368 
L 392.309029 262.496842 
L 393.127046 312.517895 
L 396.399113 305.696842 
L 397.21713 310.244211 
L 398.035147 280.686316 
L 398.853164 303.423158 
L 399.671181 287.507368 
L 401.307214 264.770526 
L 407.033333 289.781053 
L 408.669367 317.065263 
L 411.941434 276.138947 
L 416.031519 289.781053 
L 416.849535 289.781053 
L 419.303586 301.149474 
L 420.121603 319.338947 
L 421.757637 285.233684 
L 422.575654 301.149474 
L 425.029704 294.328421 
L 428.301772 326.16 
L 430.755823 312.517895 
L 432.391856 285.233684 
L 433.209873 267.044211 
L 434.845907 255.675789 
L 436.481941 303.423158 
L 438.117975 321.612632 
L 438.935992 296.602105 
L 439.754009 296.602105 
L 442.208059 312.517895 
L 444.66211 326.16 
L 446.298144 298.875789 
L 447.934177 278.412632 
L 448.752194 326.16 
L 450.388228 257.949474 
L 452.842279 273.865263 
L 461.022448 287.507368 
L 464.294515 271.591579 
L 465.930549 303.423158 
L 467.566583 307.970526 
L 470.838651 335.254737 
L 471.656667 296.602105 
L 474.928735 276.138947 
L 475.746752 292.054737 
L 477.382786 307.970526 
L 480.654853 282.96 
L 481.47287 330.707368 
L 482.290887 251.128421 
L 483.108904 310.244211 
L 483.926921 321.612632 
L 484.744938 305.696842 
L 486.380972 307.970526 
L 488.835022 307.970526 
L 491.289073 312.517895 
L 492.925107 328.433684 
L 493.743124 317.065263 
L 494.561141 332.981053 
L 495.379157 298.875789 
L 496.197174 301.149474 
L 500.287259 298.875789 
L 501.105276 317.065263 
L 501.923293 296.602105 
L 502.741309 312.517895 
L 504.377343 323.886316 
L 505.19536 317.065263 
L 506.831394 280.686316 
L 507.649411 305.696842 
L 508.467428 280.686316 
L 510.103462 296.602105 
L 510.921478 369.36 
L 512.557512 305.696842 
L 517.465614 294.328421 
L 518.28363 314.791579 
L 519.101647 319.338947 
L 519.919664 296.602105 
L 520.737681 294.328421 
L 521.555698 280.686316 
L 522.373715 294.328421 
L 523.191732 326.16 
L 524.009749 301.149474 
L 525.645783 310.244211 
L 526.463799 287.507368 
L 527.281816 310.244211 
L 528.099833 312.517895 
L 530.553884 282.96 
L 531.371901 314.791579 
L 531.371901 314.791579 
" clip-path="url(#p138862f941)" style="fill: none; stroke: #0173b2; stroke-width: 1.5; stroke-linecap: square"/>
   </g>
   <g id="line2d_14">
    <path d="M 162.446281 287.507368 
L 163.264298 310.244211 
L 164.082315 180.644211 
L 165.718349 294.328421 
L 166.536365 267.044211 
L 169.808433 292.054737 
L 170.62645 262.496842 
L 172.262484 317.065263 
L 173.080501 287.507368 
L 175.534551 307.970526 
L 182.896703 246.581053 
L 183.71472 280.686316 
L 184.532737 278.412632 
L 185.350754 289.781053 
L 186.168771 276.138947 
L 186.986788 301.149474 
L 190.258855 307.970526 
L 192.712906 301.149474 
L 194.34894 280.686316 
L 199.257041 328.433684 
L 200.075058 323.886316 
L 201.711092 317.065263 
L 204.98316 260.223158 
L 205.801176 285.233684 
L 206.619193 294.328421 
L 207.43721 319.338947 
L 209.891261 287.507368 
L 211.527295 312.517895 
L 212.345312 317.065263 
L 216.435396 307.970526 
L 218.07143 328.433684 
L 219.707464 321.612632 
L 220.525481 264.770526 
L 223.797548 294.328421 
L 224.615565 280.686316 
L 225.433582 280.686316 
L 229.523666 282.96 
L 230.341683 267.044211 
L 231.1597 305.696842 
L 231.977717 123.802105 
L 232.795734 276.138947 
L 233.613751 235.212632 
L 234.431768 107.886316 
L 235.249785 182.917895 
L 236.885818 307.970526 
L 238.521852 330.707368 
L 239.339869 273.865263 
L 240.975903 262.496842 
L 244.247971 314.791579 
L 247.520038 330.707368 
L 248.338055 273.865263 
L 249.156072 307.970526 
L 250.792106 273.865263 
L 255.700207 282.96 
L 257.336241 253.402105 
L 266.334427 278.412632 
L 272.060545 312.517895 
L 274.514596 262.496842 
L 277.786663 301.149474 
L 280.240714 273.865263 
L 281.058731 285.233684 
L 281.876748 262.496842 
L 287.602866 351.170526 
L 288.420883 335.254737 
L 290.874934 282.96 
L 299.873119 307.970526 
L 300.691136 278.412632 
L 303.963204 289.781053 
L 304.781221 294.328421 
L 305.599238 332.981053 
L 308.871305 314.791579 
L 310.507339 287.507368 
L 312.143373 271.591579 
L 312.96139 339.802105 
L 313.779407 303.423158 
L 314.597424 285.233684 
L 315.41544 244.307368 
L 316.233457 248.854737 
L 317.051474 146.538947 
L 319.505525 296.602105 
L 320.323542 296.602105 
L 323.595609 267.044211 
L 324.413626 276.138947 
L 326.04966 321.612632 
L 329.321728 269.317895 
L 331.775778 162.454737 
L 333.411812 312.517895 
L 334.229829 289.781053 
L 335.865863 287.507368 
L 336.68388 242.033684 
L 337.501897 292.054737 
L 339.13793 319.338947 
L 339.955947 328.433684 
L 340.773964 285.233684 
L 341.591981 271.591579 
L 344.046032 271.591579 
L 345.682066 307.970526 
L 346.500082 289.781053 
L 348.136116 332.981053 
L 351.408184 282.96 
L 354.680251 260.223158 
L 356.316285 294.328421 
L 361.224387 317.065263 
L 362.86042 312.517895 
L 365.314471 326.16 
L 366.950505 255.675789 
L 367.768522 278.412632 
L 368.586539 296.602105 
L 369.404556 248.854737 
L 371.858606 298.875789 
L 372.676623 307.970526 
L 373.49464 287.507368 
L 374.312657 282.96 
L 375.948691 303.423158 
L 380.038775 271.591579 
L 384.946877 289.781053 
L 387.400927 303.423158 
L 389.036961 298.875789 
L 389.854978 330.707368 
L 393.945062 307.970526 
L 394.763079 257.949474 
L 395.581096 301.149474 
L 400.489198 269.317895 
L 402.125231 194.286316 
L 402.943248 314.791579 
L 403.761265 260.223158 
L 404.579282 273.865263 
L 405.397299 196.56 
L 406.215316 287.507368 
L 407.85135 219.296842 
L 409.487383 303.423158 
L 410.3054 273.865263 
L 411.123417 280.686316 
L 412.759451 287.507368 
L 413.577468 312.517895 
L 414.395485 273.865263 
L 415.213502 285.233684 
L 417.667552 214.749474 
L 418.485569 255.675789 
L 420.93962 305.696842 
L 423.393671 276.138947 
L 424.211688 337.528421 
L 425.847721 303.423158 
L 426.665738 251.128421 
L 427.483755 287.507368 
L 429.119789 292.054737 
L 429.937806 246.581053 
L 431.57384 305.696842 
L 434.02789 237.486316 
L 435.663924 269.317895 
L 437.299958 326.16 
L 440.572025 276.138947 
L 441.390042 294.328421 
L 443.026076 301.149474 
L 443.844093 289.781053 
L 445.480127 278.412632 
L 447.116161 326.16 
L 449.570211 328.433684 
L 451.206245 285.233684 
L 452.024262 255.675789 
L 453.660296 264.770526 
L 454.478313 305.696842 
L 455.29633 303.423158 
L 456.114346 271.591579 
L 456.932363 310.244211 
L 457.75038 282.96 
L 458.568397 303.423158 
L 459.386414 262.496842 
L 460.204431 280.686316 
L 461.840465 267.044211 
L 462.658482 285.233684 
L 463.476499 280.686316 
L 465.112532 162.454737 
L 466.748566 319.338947 
L 468.3846 303.423158 
L 469.202617 321.612632 
L 470.020634 253.402105 
L 472.474684 226.117895 
L 473.292701 298.875789 
L 474.110718 307.970526 
L 476.564769 282.96 
L 478.200803 273.865263 
L 479.01882 298.875789 
L 479.836836 66.96 
L 485.562955 160.181053 
L 487.198988 244.307368 
L 488.017005 248.854737 
L 489.653039 282.96 
L 490.471056 278.412632 
L 492.10709 73.781053 
L 497.015191 321.612632 
L 497.833208 282.96 
L 498.651225 296.602105 
L 499.469242 276.138947 
L 503.559326 271.591579 
L 506.013377 307.970526 
L 509.285445 176.096842 
L 511.739495 192.012632 
L 513.375529 319.338947 
L 514.193546 214.749474 
L 515.011563 314.791579 
L 515.82958 294.328421 
L 516.647597 312.517895 
L 524.827766 294.328421 
L 528.91785 267.044211 
L 529.735867 248.854737 
L 529.735867 248.854737 
" clip-path="url(#p138862f941)" style="fill: none; stroke: #de8f05; stroke-opacity: 0.5; stroke-width: 1.5; stroke-linecap: square"/>
   </g>
   <g id="patch_3">
    <path d="M 144 384.48 
L 144 51.84 
" style="fill: none; stroke: #000000; stroke-width: 0.8; stroke-linejoin: miter; stroke-linecap: square"/>
   </g>
   <g id="patch_4">
    <path d="M 549.818182 384.48 
L 549.818182 51.84 
" style="fill: none; stroke: #000000; stroke-width: 0.8; stroke-linejoin: miter; stroke-linecap: square"/>
   </g>
   <g id="patch_5">
    <path d="M 144 384.48 
L 549.818182 384.48 
" style="fill: none; stroke: #000000; stroke-width: 0.8; stroke-linejoin: miter; stroke-linecap: square"/>
   </g>
   <g id="patch_6">
    <path d="M 144 51.84 
L 549.818182 51.84 
" style="fill: none; stroke: #000000; stroke-width: 0.8; stroke-linejoin: miter; stroke-linecap: square"/>
   </g>
   <g id="text_15">
    <!-- QRS duration for Class 0 vs Class 1 -->
    <g transform="translate(241.480653 45.84) scale(0.12 -0.12)">
     <defs>
      <path id="DejaVuSans-66" d="M 2375 4863 
L 2375 4384 
L 1825 4384 
Q 1516 4384 1395 4259 
Q 1275 4134 1275 3809 
L 1275 3500 
L 2222 3500 
L 2222 3053 
L 1275 3053 
L 1275 0 
L 697 0 
L 697 3053 
L 147 3053 
L 147 3500 
L 697 3500 
L 697 3744 
Q 697 4328 969 4595 
Q 1241 4863 1831 4863 
L 2375 4863 
z
" transform="scale(0.015625)"/>
      <path id="DejaVuSans-43" d="M 4122 4306 
L 4122 3641 
Q 3803 3938 3442 4084 
Q 3081 4231 2675 4231 
Q 1875 4231 1450 3742 
Q 1025 3253 1025 2328 
Q 1025 1406 1450 917 
Q 1875 428 2675 428 
Q 3081 428 3442 575 
Q 3803 722 4122 1019 
L 4122 359 
Q 3791 134 3420 21 
Q 3050 -91 2638 -91 
Q 1578 -91 968 557 
Q 359 1206 359 2328 
Q 359 3453 968 4101 
Q 1578 4750 2638 4750 
Q 3056 4750 3426 4639 
Q 3797 4528 4122 4306 
z
" transform="scale(0.015625)"/>
      <path id="DejaVuSans-6c" d="M 603 4863 
L 1178 4863 
L 1178 0 
L 603 0 
L 603 4863 
z
" transform="scale(0.015625)"/>
      <path id="DejaVuSans-73" d="M 2834 3397 
L 2834 2853 
Q 2591 2978 2328 3040 
Q 2066 3103 1784 3103 
Q 1356 3103 1142 2972 
Q 928 2841 928 2578 
Q 928 2378 1081 2264 
Q 1234 2150 1697 2047 
L 1894 2003 
Q 2506 1872 2764 1633 
Q 3022 1394 3022 966 
Q 3022 478 2636 193 
Q 2250 -91 1575 -91 
Q 1294 -91 989 -36 
Q 684 19 347 128 
L 347 722 
Q 666 556 975 473 
Q 1284 391 1588 391 
Q 1994 391 2212 530 
Q 2431 669 2431 922 
Q 2431 1156 2273 1281 
Q 2116 1406 1581 1522 
L 1381 1569 
Q 847 1681 609 1914 
Q 372 2147 372 2553 
Q 372 3047 722 3315 
Q 1072 3584 1716 3584 
Q 2034 3584 2315 3537 
Q 2597 3491 2834 3397 
z
" transform="scale(0.015625)"/>
      <path id="DejaVuSans-76" d="M 191 3500 
L 800 3500 
L 1894 563 
L 2988 3500 
L 3597 3500 
L 2284 0 
L 1503 0 
L 191 3500 
z
" transform="scale(0.015625)"/>
     </defs>
     <use xlink:href="#DejaVuSans-51"/>
     <use xlink:href="#DejaVuSans-52" x="78.710938"/>
     <use xlink:href="#DejaVuSans-53" x="148.193359"/>
     <use xlink:href="#DejaVuSans-20" x="211.669922"/>
     <use xlink:href="#DejaVuSans-64" x="243.457031"/>
     <use xlink:href="#DejaVuSans-75" x="306.933594"/>
     <use xlink:href="#DejaVuSans-72" x="370.3125"/>
     <use xlink:href="#DejaVuSans-61" x="411.425781"/>
     <use xlink:href="#DejaVuSans-74" x="472.705078"/>
     <use xlink:href="#DejaVuSans-69" x="511.914062"/>
     <use xlink:href="#DejaVuSans-6f" x="539.697266"/>
     <use xlink:href="#DejaVuSans-6e" x="600.878906"/>
     <use xlink:href="#DejaVuSans-20" x="664.257812"/>
     <use xlink:href="#DejaVuSans-66" x="696.044922"/>
     <use xlink:href="#DejaVuSans-6f" x="731.25"/>
     <use xlink:href="#DejaVuSans-72" x="792.431641"/>
     <use xlink:href="#DejaVuSans-20" x="833.544922"/>
     <use xlink:href="#DejaVuSans-43" x="865.332031"/>
     <use xlink:href="#DejaVuSans-6c" x="935.15625"/>
     <use xlink:href="#DejaVuSans-61" x="962.939453"/>
     <use xlink:href="#DejaVuSans-73" x="1024.21875"/>
     <use xlink:href="#DejaVuSans-73" x="1076.318359"/>
     <use xlink:href="#DejaVuSans-20" x="1128.417969"/>
     <use xlink:href="#DejaVuSans-30" x="1160.205078"/>
     <use xlink:href="#DejaVuSans-20" x="1223.828125"/>
     <use xlink:href="#DejaVuSans-76" x="1255.615234"/>
     <use xlink:href="#DejaVuSans-73" x="1314.794922"/>
     <use xlink:href="#DejaVuSans-20" x="1366.894531"/>
     <use xlink:href="#DejaVuSans-43" x="1398.681641"/>
     <use xlink:href="#DejaVuSans-6c" x="1468.505859"/>
     <use xlink:href="#DejaVuSans-61" x="1496.289062"/>
     <use xlink:href="#DejaVuSans-73" x="1557.568359"/>
     <use xlink:href="#DejaVuSans-73" x="1609.667969"/>
     <use xlink:href="#DejaVuSans-20" x="1661.767578"/>
     <use xlink:href="#DejaVuSans-31" x="1693.554688"/>
    </g>
   </g>
   <g id="legend_1">
    <g id="patch_7">
     <path d="M 151 89.19625 
L 218.848437 89.19625 
Q 220.848437 89.19625 220.848437 87.19625 
L 220.848437 58.84 
Q 220.848437 56.84 218.848437 56.84 
L 151 56.84 
Q 149 56.84 149 58.84 
L 149 87.19625 
Q 149 89.19625 151 89.19625 
z
" style="fill: #ffffff; opacity: 0.8; stroke: #cccccc; stroke-linejoin: miter"/>
    </g>
    <g id="line2d_15">
     <path d="M 153 64.938437 
L 163 64.938437 
L 173 64.938437 
" style="fill: none; stroke: #0173b2; stroke-width: 1.5; stroke-linecap: square"/>
    </g>
    <g id="text_16">
     <!-- Class 0 -->
     <g transform="translate(181 68.438437) scale(0.1 -0.1)">
      <use xlink:href="#DejaVuSans-43"/>
      <use xlink:href="#DejaVuSans-6c" x="69.824219"/>
      <use xlink:href="#DejaVuSans-61" x="97.607422"/>
      <use xlink:href="#DejaVuSans-73" x="158.886719"/>
      <use xlink:href="#DejaVuSans-73" x="210.986328"/>
      <use xlink:href="#DejaVuSans-20" x="263.085938"/>
      <use xlink:href="#DejaVuSans-30" x="294.873047"/>
     </g>
    </g>
    <g id="line2d_16">
     <path d="M 153 79.616562 
L 163 79.616562 
L 173 79.616562 
" style="fill: none; stroke: #de8f05; stroke-opacity: 0.5; stroke-width: 1.5; stroke-linecap: square"/>
    </g>
    <g id="text_17">
     <!-- Class 1 -->
     <g transform="translate(181 83.116562) scale(0.1 -0.1)">
      <use xlink:href="#DejaVuSans-43"/>
      <use xlink:href="#DejaVuSans-6c" x="69.824219"/>
      <use xlink:href="#DejaVuSans-61" x="97.607422"/>
      <use xlink:href="#DejaVuSans-73" x="158.886719"/>
      <use xlink:href="#DejaVuSans-73" x="210.986328"/>
      <use xlink:href="#DejaVuSans-20" x="263.085938"/>
      <use xlink:href="#DejaVuSans-31" x="294.873047"/>
     </g>
    </g>
   </g>
  </g>
  <g id="axes_2">
   <g id="patch_8">
    <path d="M 630.981818 384.48 
L 1036.8 384.48 
L 1036.8 51.84 
L 630.981818 51.84 
z
" style="fill: #ffffff"/>
   </g>
   <g id="matplotlib.axis_3">
    <g id="xtick_6">
     <g id="line2d_17">
      <g>
       <use xlink:href="#mebfcf65b93" x="630.981818" y="384.48" style="stroke: #000000; stroke-width: 0.8"/>
      </g>
     </g>
     <g id="text_18">
      <!-- 0.0 -->
      <g transform="translate(623.030256 399.078438) scale(0.1 -0.1)">
       <defs>
        <path id="DejaVuSans-2e" d="M 684 794 
L 1344 794 
L 1344 0 
L 684 0 
L 684 794 
z
" transform="scale(0.015625)"/>
       </defs>
       <use xlink:href="#DejaVuSans-30"/>
       <use xlink:href="#DejaVuSans-2e" x="63.623047"/>
       <use xlink:href="#DejaVuSans-30" x="95.410156"/>
      </g>
     </g>
    </g>
    <g id="xtick_7">
     <g id="line2d_18">
      <g>
       <use xlink:href="#mebfcf65b93" x="712.145455" y="384.48" style="stroke: #000000; stroke-width: 0.8"/>
      </g>
     </g>
     <g id="text_19">
      <!-- 0.2 -->
      <g transform="translate(704.193892 399.078438) scale(0.1 -0.1)">
       <use xlink:href="#DejaVuSans-30"/>
       <use xlink:href="#DejaVuSans-2e" x="63.623047"/>
       <use xlink:href="#DejaVuSans-32" x="95.410156"/>
      </g>
     </g>
    </g>
    <g id="xtick_8">
     <g id="line2d_19">
      <g>
       <use xlink:href="#mebfcf65b93" x="793.309091" y="384.48" style="stroke: #000000; stroke-width: 0.8"/>
      </g>
     </g>
     <g id="text_20">
      <!-- 0.4 -->
      <g transform="translate(785.357528 399.078438) scale(0.1 -0.1)">
       <use xlink:href="#DejaVuSans-30"/>
       <use xlink:href="#DejaVuSans-2e" x="63.623047"/>
       <use xlink:href="#DejaVuSans-34" x="95.410156"/>
      </g>
     </g>
    </g>
    <g id="xtick_9">
     <g id="line2d_20">
      <g>
       <use xlink:href="#mebfcf65b93" x="874.472727" y="384.48" style="stroke: #000000; stroke-width: 0.8"/>
      </g>
     </g>
     <g id="text_21">
      <!-- 0.6 -->
      <g transform="translate(866.521165 399.078438) scale(0.1 -0.1)">
       <use xlink:href="#DejaVuSans-30"/>
       <use xlink:href="#DejaVuSans-2e" x="63.623047"/>
       <use xlink:href="#DejaVuSans-36" x="95.410156"/>
      </g>
     </g>
    </g>
    <g id="xtick_10">
     <g id="line2d_21">
      <g>
       <use xlink:href="#mebfcf65b93" x="955.636364" y="384.48" style="stroke: #000000; stroke-width: 0.8"/>
      </g>
     </g>
     <g id="text_22">
      <!-- 0.8 -->
      <g transform="translate(947.684801 399.078438) scale(0.1 -0.1)">
       <use xlink:href="#DejaVuSans-30"/>
       <use xlink:href="#DejaVuSans-2e" x="63.623047"/>
       <use xlink:href="#DejaVuSans-38" x="95.410156"/>
      </g>
     </g>
    </g>
    <g id="xtick_11">
     <g id="line2d_22">
      <g>
       <use xlink:href="#mebfcf65b93" x="1036.8" y="384.48" style="stroke: #000000; stroke-width: 0.8"/>
      </g>
     </g>
     <g id="text_23">
      <!-- 1.0 -->
      <g transform="translate(1028.848438 399.078438) scale(0.1 -0.1)">
       <use xlink:href="#DejaVuSans-31"/>
       <use xlink:href="#DejaVuSans-2e" x="63.623047"/>
       <use xlink:href="#DejaVuSans-30" x="95.410156"/>
      </g>
     </g>
    </g>
   </g>
   <g id="matplotlib.axis_4">
    <g id="ytick_8">
     <g id="line2d_23">
      <g>
       <use xlink:href="#mb6e85b8e37" x="630.981818" y="384.48" style="stroke: #000000; stroke-width: 0.8"/>
      </g>
     </g>
     <g id="text_24">
      <!-- 0.0 -->
      <g transform="translate(608.078693 388.279219) scale(0.1 -0.1)">
       <use xlink:href="#DejaVuSans-30"/>
       <use xlink:href="#DejaVuSans-2e" x="63.623047"/>
       <use xlink:href="#DejaVuSans-30" x="95.410156"/>
      </g>
     </g>
    </g>
    <g id="ytick_9">
     <g id="line2d_24">
      <g>
       <use xlink:href="#mb6e85b8e37" x="630.981818" y="317.952" style="stroke: #000000; stroke-width: 0.8"/>
      </g>
     </g>
     <g id="text_25">
      <!-- 0.2 -->
      <g transform="translate(608.078693 321.751219) scale(0.1 -0.1)">
       <use xlink:href="#DejaVuSans-30"/>
       <use xlink:href="#DejaVuSans-2e" x="63.623047"/>
       <use xlink:href="#DejaVuSans-32" x="95.410156"/>
      </g>
     </g>
    </g>
    <g id="ytick_10">
     <g id="line2d_25">
      <g>
       <use xlink:href="#mb6e85b8e37" x="630.981818" y="251.424" style="stroke: #000000; stroke-width: 0.8"/>
      </g>
     </g>
     <g id="text_26">
      <!-- 0.4 -->
      <g transform="translate(608.078693 255.223219) scale(0.1 -0.1)">
       <use xlink:href="#DejaVuSans-30"/>
       <use xlink:href="#DejaVuSans-2e" x="63.623047"/>
       <use xlink:href="#DejaVuSans-34" x="95.410156"/>
      </g>
     </g>
    </g>
    <g id="ytick_11">
     <g id="line2d_26">
      <g>
       <use xlink:href="#mb6e85b8e37" x="630.981818" y="184.896" style="stroke: #000000; stroke-width: 0.8"/>
      </g>
     </g>
     <g id="text_27">
      <!-- 0.6 -->
      <g transform="translate(608.078693 188.695219) scale(0.1 -0.1)">
       <use xlink:href="#DejaVuSans-30"/>
       <use xlink:href="#DejaVuSans-2e" x="63.623047"/>
       <use xlink:href="#DejaVuSans-36" x="95.410156"/>
      </g>
     </g>
    </g>
    <g id="ytick_12">
     <g id="line2d_27">
      <g>
       <use xlink:href="#mb6e85b8e37" x="630.981818" y="118.368" style="stroke: #000000; stroke-width: 0.8"/>
      </g>
     </g>
     <g id="text_28">
      <!-- 0.8 -->
      <g transform="translate(608.078693 122.167219) scale(0.1 -0.1)">
       <use xlink:href="#DejaVuSans-30"/>
       <use xlink:href="#DejaVuSans-2e" x="63.623047"/>
       <use xlink:href="#DejaVuSans-38" x="95.410156"/>
      </g>
     </g>
    </g>
    <g id="ytick_13">
     <g id="line2d_28">
      <g>
       <use xlink:href="#mb6e85b8e37" x="630.981818" y="51.84" style="stroke: #000000; stroke-width: 0.8"/>
      </g>
     </g>
     <g id="text_29">
      <!-- 1.0 -->
      <g transform="translate(608.078693 55.639219) scale(0.1 -0.1)">
       <use xlink:href="#DejaVuSans-31"/>
       <use xlink:href="#DejaVuSans-2e" x="63.623047"/>
       <use xlink:href="#DejaVuSans-30" x="95.410156"/>
      </g>
     </g>
    </g>
   </g>
   <g id="patch_9">
    <path d="M 630.981818 384.48 
L 630.981818 51.84 
" style="fill: none; stroke: #000000; stroke-width: 0.8; stroke-linejoin: miter; stroke-linecap: square"/>
   </g>
   <g id="patch_10">
    <path d="M 1036.8 384.48 
L 1036.8 51.84 
" style="fill: none; stroke: #000000; stroke-width: 0.8; stroke-linejoin: miter; stroke-linecap: square"/>
   </g>
   <g id="patch_11">
    <path d="M 630.981818 384.48 
L 1036.8 384.48 
" style="fill: none; stroke: #000000; stroke-width: 0.8; stroke-linejoin: miter; stroke-linecap: square"/>
   </g>
   <g id="patch_12">
    <path d="M 630.981818 51.84 
L 1036.8 51.84 
" style="fill: none; stroke: #000000; stroke-width: 0.8; stroke-linejoin: miter; stroke-linecap: square"/>
   </g>
  </g>
 </g>
 <defs>
  <clipPath id="p138862f941">
   <rect x="144" y="51.84" width="405.818182" height="332.64"/>
  </clipPath>
 </defs>
</svg>
