<?xml version="1.0" encoding="utf-8" standalone="no"?>
<!DOCTYPE svg PUBLIC "-//W3C//DTD SVG 1.1//EN"
  "http://www.w3.org/Graphics/SVG/1.1/DTD/svg11.dtd">
<svg xmlns:xlink="http://www.w3.org/1999/xlink" width="1152pt" height="432pt" viewBox="0 0 1152 432" xmlns="http://www.w3.org/2000/svg" version="1.1">
 <metadata>
  <rdf:RDF xmlns:dc="http://purl.org/dc/elements/1.1/" xmlns:cc="http://creativecommons.org/ns#" xmlns:rdf="http://www.w3.org/1999/02/22-rdf-syntax-ns#">
   <cc:Work>
    <dc:type rdf:resource="http://purl.org/dc/dcmitype/StillImage"/>
    <dc:date>2024-03-28T16:43:45.759063</dc:date>
    <dc:format>image/svg+xml</dc:format>
    <dc:creator>
     <cc:Agent>
      <dc:title>Matplotlib v3.7.5, https://matplotlib.org/</dc:title>
     </cc:Agent>
    </dc:creator>
   </cc:Work>
  </rdf:RDF>
 </metadata>
 <defs>
  <style type="text/css">*{stroke-linejoin: round; stroke-linecap: butt}</style>
 </defs>
 <g id="figure_1">
  <g id="patch_1">
   <path d="M 0 432 
L 1152 432 
L 1152 0 
L 0 0 
z
" style="fill: #ffffff"/>
  </g>
  <g id="axes_1">
   <g id="patch_2">
    <path d="M 50.96 390.04 
L 570.645 390.04 
L 570.645 26.88 
L 50.96 26.88 
z
" style="fill: #ffffff"/>
   </g>
   <g id="matplotlib.axis_1">
    <g id="xtick_1">
     <g id="line2d_1">
      <defs>
       <path id="m857974c429" d="M 0 0 
L 0 3.5 
" style="stroke: #000000; stroke-width: 0.8"/>
      </defs>
      <g>
       <use xlink:href="#m857974c429" x="74.582045" y="390.04" style="stroke: #000000; stroke-width: 0.8"/>
      </g>
     </g>
     <g id="text_1">
      <!-- 0 -->
      <g transform="translate(71.400795 404.638438) scale(0.1 -0.1)">
       <defs>
        <path id="DejaVuSans-30" d="M 2034 4250 
Q 1547 4250 1301 3770 
Q 1056 3291 1056 2328 
Q 1056 1369 1301 889 
Q 1547 409 2034 409 
Q 2525 409 2770 889 
Q 3016 1369 3016 2328 
Q 3016 3291 2770 3770 
Q 2525 4250 2034 4250 
z
M 2034 4750 
Q 2819 4750 3233 4129 
Q 3647 3509 3647 2328 
Q 3647 1150 3233 529 
Q 2819 -91 2034 -91 
Q 1250 -91 836 529 
Q 422 1150 422 2328 
Q 422 3509 836 4129 
Q 1250 4750 2034 4750 
z
" transform="scale(0.015625)"/>
       </defs>
       <use xlink:href="#DejaVuSans-30"/>
      </g>
     </g>
    </g>
    <g id="xtick_2">
     <g id="line2d_2">
      <g>
       <use xlink:href="#m857974c429" x="179.336127" y="390.04" style="stroke: #000000; stroke-width: 0.8"/>
      </g>
     </g>
     <g id="text_2">
      <!-- 100 -->
      <g transform="translate(169.792377 404.638438) scale(0.1 -0.1)">
       <defs>
        <path id="DejaVuSans-31" d="M 794 531 
L 1825 531 
L 1825 4091 
L 703 3866 
L 703 4441 
L 1819 4666 
L 2450 4666 
L 2450 531 
L 3481 531 
L 3481 0 
L 794 0 
L 794 531 
z
" transform="scale(0.015625)"/>
       </defs>
       <use xlink:href="#DejaVuSans-31"/>
       <use xlink:href="#DejaVuSans-30" x="63.623047"/>
       <use xlink:href="#DejaVuSans-30" x="127.246094"/>
      </g>
     </g>
    </g>
    <g id="xtick_3">
     <g id="line2d_3">
      <g>
       <use xlink:href="#m857974c429" x="284.090209" y="390.04" style="stroke: #000000; stroke-width: 0.8"/>
      </g>
     </g>
     <g id="text_3">
      <!-- 200 -->
      <g transform="translate(274.546459 404.638438) scale(0.1 -0.1)">
       <defs>
        <path id="DejaVuSans-32" d="M 1228 531 
L 3431 531 
L 3431 0 
L 469 0 
L 469 531 
Q 828 903 1448 1529 
Q 2069 2156 2228 2338 
Q 2531 2678 2651 2914 
Q 2772 3150 2772 3378 
Q 2772 3750 2511 3984 
Q 2250 4219 1831 4219 
Q 1534 4219 1204 4116 
Q 875 4013 500 3803 
L 500 4441 
Q 881 4594 1212 4672 
Q 1544 4750 1819 4750 
Q 2544 4750 2975 4387 
Q 3406 4025 3406 3419 
Q 3406 3131 3298 2873 
Q 3191 2616 2906 2266 
Q 2828 2175 2409 1742 
Q 1991 1309 1228 531 
z
" transform="scale(0.015625)"/>
       </defs>
       <use xlink:href="#DejaVuSans-32"/>
       <use xlink:href="#DejaVuSans-30" x="63.623047"/>
       <use xlink:href="#DejaVuSans-30" x="127.246094"/>
      </g>
     </g>
    </g>
    <g id="xtick_4">
     <g id="line2d_4">
      <g>
       <use xlink:href="#m857974c429" x="388.844291" y="390.04" style="stroke: #000000; stroke-width: 0.8"/>
      </g>
     </g>
     <g id="text_4">
      <!-- 300 -->
      <g transform="translate(379.300541 404.638438) scale(0.1 -0.1)">
       <defs>
        <path id="DejaVuSans-33" d="M 2597 2516 
Q 3050 2419 3304 2112 
Q 3559 1806 3559 1356 
Q 3559 666 3084 287 
Q 2609 -91 1734 -91 
Q 1441 -91 1130 -33 
Q 819 25 488 141 
L 488 750 
Q 750 597 1062 519 
Q 1375 441 1716 441 
Q 2309 441 2620 675 
Q 2931 909 2931 1356 
Q 2931 1769 2642 2001 
Q 2353 2234 1838 2234 
L 1294 2234 
L 1294 2753 
L 1863 2753 
Q 2328 2753 2575 2939 
Q 2822 3125 2822 3475 
Q 2822 3834 2567 4026 
Q 2313 4219 1838 4219 
Q 1578 4219 1281 4162 
Q 984 4106 628 3988 
L 628 4550 
Q 988 4650 1302 4700 
Q 1616 4750 1894 4750 
Q 2613 4750 3031 4423 
Q 3450 4097 3450 3541 
Q 3450 3153 3228 2886 
Q 3006 2619 2597 2516 
z
" transform="scale(0.015625)"/>
       </defs>
       <use xlink:href="#DejaVuSans-33"/>
       <use xlink:href="#DejaVuSans-30" x="63.623047"/>
       <use xlink:href="#DejaVuSans-30" x="127.246094"/>
      </g>
     </g>
    </g>
    <g id="xtick_5">
     <g id="line2d_5">
      <g>
       <use xlink:href="#m857974c429" x="493.598373" y="390.04" style="stroke: #000000; stroke-width: 0.8"/>
      </g>
     </g>
     <g id="text_5">
      <!-- 400 -->
      <g transform="translate(484.054623 404.638438) scale(0.1 -0.1)">
       <defs>
        <path id="DejaVuSans-34" d="M 2419 4116 
L 825 1625 
L 2419 1625 
L 2419 4116 
z
M 2253 4666 
L 3047 4666 
L 3047 1625 
L 3713 1625 
L 3713 1100 
L 3047 1100 
L 3047 0 
L 2419 0 
L 2419 1100 
L 313 1100 
L 313 1709 
L 2253 4666 
z
" transform="scale(0.015625)"/>
       </defs>
       <use xlink:href="#DejaVuSans-34"/>
       <use xlink:href="#DejaVuSans-30" x="63.623047"/>
       <use xlink:href="#DejaVuSans-30" x="127.246094"/>
      </g>
     </g>
    </g>
    <g id="text_6">
     <!-- Index -->
     <g transform="translate(297.036094 418.316562) scale(0.1 -0.1)">
      <defs>
       <path id="DejaVuSans-49" d="M 628 4666 
L 1259 4666 
L 1259 0 
L 628 0 
L 628 4666 
z
" transform="scale(0.015625)"/>
       <path id="DejaVuSans-6e" d="M 3513 2113 
L 3513 0 
L 2938 0 
L 2938 2094 
Q 2938 2591 2744 2837 
Q 2550 3084 2163 3084 
Q 1697 3084 1428 2787 
Q 1159 2491 1159 1978 
L 1159 0 
L 581 0 
L 581 3500 
L 1159 3500 
L 1159 2956 
Q 1366 3272 1645 3428 
Q 1925 3584 2291 3584 
Q 2894 3584 3203 3211 
Q 3513 2838 3513 2113 
z
" transform="scale(0.015625)"/>
       <path id="DejaVuSans-64" d="M 2906 2969 
L 2906 4863 
L 3481 4863 
L 3481 0 
L 2906 0 
L 2906 525 
Q 2725 213 2448 61 
Q 2172 -91 1784 -91 
Q 1150 -91 751 415 
Q 353 922 353 1747 
Q 353 2572 751 3078 
Q 1150 3584 1784 3584 
Q 2172 3584 2448 3432 
Q 2725 3281 2906 2969 
z
M 947 1747 
Q 947 1113 1208 752 
Q 1469 391 1925 391 
Q 2381 391 2643 752 
Q 2906 1113 2906 1747 
Q 2906 2381 2643 2742 
Q 2381 3103 1925 3103 
Q 1469 3103 1208 2742 
Q 947 2381 947 1747 
z
" transform="scale(0.015625)"/>
       <path id="DejaVuSans-65" d="M 3597 1894 
L 3597 1613 
L 953 1613 
Q 991 1019 1311 708 
Q 1631 397 2203 397 
Q 2534 397 2845 478 
Q 3156 559 3463 722 
L 3463 178 
Q 3153 47 2828 -22 
Q 2503 -91 2169 -91 
Q 1331 -91 842 396 
Q 353 884 353 1716 
Q 353 2575 817 3079 
Q 1281 3584 2069 3584 
Q 2775 3584 3186 3129 
Q 3597 2675 3597 1894 
z
M 3022 2063 
Q 3016 2534 2758 2815 
Q 2500 3097 2075 3097 
Q 1594 3097 1305 2825 
Q 1016 2553 972 2059 
L 3022 2063 
z
" transform="scale(0.015625)"/>
       <path id="DejaVuSans-78" d="M 3513 3500 
L 2247 1797 
L 3578 0 
L 2900 0 
L 1881 1375 
L 863 0 
L 184 0 
L 1544 1831 
L 300 3500 
L 978 3500 
L 1906 2253 
L 2834 3500 
L 3513 3500 
z
" transform="scale(0.015625)"/>
      </defs>
      <use xlink:href="#DejaVuSans-49"/>
      <use xlink:href="#DejaVuSans-6e" x="29.492188"/>
      <use xlink:href="#DejaVuSans-64" x="92.871094"/>
      <use xlink:href="#DejaVuSans-65" x="156.347656"/>
      <use xlink:href="#DejaVuSans-78" x="216.121094"/>
     </g>
    </g>
   </g>
   <g id="matplotlib.axis_2">
    <g id="ytick_1">
     <g id="line2d_6">
      <defs>
       <path id="m6b49e35b52" d="M 0 0 
L -3.5 0 
" style="stroke: #000000; stroke-width: 0.8"/>
      </defs>
      <g>
       <use xlink:href="#m6b49e35b52" x="50.96" y="361.121244" style="stroke: #000000; stroke-width: 0.8"/>
      </g>
     </g>
     <g id="text_7">
      <!-- 60 -->
      <g transform="translate(31.235 364.920463) scale(0.1 -0.1)">
       <defs>
        <path id="DejaVuSans-36" d="M 2113 2584 
Q 1688 2584 1439 2293 
Q 1191 2003 1191 1497 
Q 1191 994 1439 701 
Q 1688 409 2113 409 
Q 2538 409 2786 701 
Q 3034 994 3034 1497 
Q 3034 2003 2786 2293 
Q 2538 2584 2113 2584 
z
M 3366 4563 
L 3366 3988 
Q 3128 4100 2886 4159 
Q 2644 4219 2406 4219 
Q 1781 4219 1451 3797 
Q 1122 3375 1075 2522 
Q 1259 2794 1537 2939 
Q 1816 3084 2150 3084 
Q 2853 3084 3261 2657 
Q 3669 2231 3669 1497 
Q 3669 778 3244 343 
Q 2819 -91 2113 -91 
Q 1303 -91 875 529 
Q 447 1150 447 2328 
Q 447 3434 972 4092 
Q 1497 4750 2381 4750 
Q 2619 4750 2861 4703 
Q 3103 4656 3366 4563 
z
" transform="scale(0.015625)"/>
       </defs>
       <use xlink:href="#DejaVuSans-36"/>
       <use xlink:href="#DejaVuSans-30" x="63.623047"/>
      </g>
     </g>
    </g>
    <g id="ytick_2">
     <g id="line2d_7">
      <g>
       <use xlink:href="#m6b49e35b52" x="50.96" y="311.475311" style="stroke: #000000; stroke-width: 0.8"/>
      </g>
     </g>
     <g id="text_8">
      <!-- 80 -->
      <g transform="translate(31.235 315.27453) scale(0.1 -0.1)">
       <defs>
        <path id="DejaVuSans-38" d="M 2034 2216 
Q 1584 2216 1326 1975 
Q 1069 1734 1069 1313 
Q 1069 891 1326 650 
Q 1584 409 2034 409 
Q 2484 409 2743 651 
Q 3003 894 3003 1313 
Q 3003 1734 2745 1975 
Q 2488 2216 2034 2216 
z
M 1403 2484 
Q 997 2584 770 2862 
Q 544 3141 544 3541 
Q 544 4100 942 4425 
Q 1341 4750 2034 4750 
Q 2731 4750 3128 4425 
Q 3525 4100 3525 3541 
Q 3525 3141 3298 2862 
Q 3072 2584 2669 2484 
Q 3125 2378 3379 2068 
Q 3634 1759 3634 1313 
Q 3634 634 3220 271 
Q 2806 -91 2034 -91 
Q 1263 -91 848 271 
Q 434 634 434 1313 
Q 434 1759 690 2068 
Q 947 2378 1403 2484 
z
M 1172 3481 
Q 1172 3119 1398 2916 
Q 1625 2713 2034 2713 
Q 2441 2713 2670 2916 
Q 2900 3119 2900 3481 
Q 2900 3844 2670 4047 
Q 2441 4250 2034 4250 
Q 1625 4250 1398 4047 
Q 1172 3844 1172 3481 
z
" transform="scale(0.015625)"/>
       </defs>
       <use xlink:href="#DejaVuSans-38"/>
       <use xlink:href="#DejaVuSans-30" x="63.623047"/>
      </g>
     </g>
    </g>
    <g id="ytick_3">
     <g id="line2d_8">
      <g>
       <use xlink:href="#m6b49e35b52" x="50.96" y="261.829378" style="stroke: #000000; stroke-width: 0.8"/>
      </g>
     </g>
     <g id="text_9">
      <!-- 100 -->
      <g transform="translate(24.8725 265.628597) scale(0.1 -0.1)">
       <use xlink:href="#DejaVuSans-31"/>
       <use xlink:href="#DejaVuSans-30" x="63.623047"/>
       <use xlink:href="#DejaVuSans-30" x="127.246094"/>
      </g>
     </g>
    </g>
    <g id="ytick_4">
     <g id="line2d_9">
      <g>
       <use xlink:href="#m6b49e35b52" x="50.96" y="212.183445" style="stroke: #000000; stroke-width: 0.8"/>
      </g>
     </g>
     <g id="text_10">
      <!-- 120 -->
      <g transform="translate(24.8725 215.982664) scale(0.1 -0.1)">
       <use xlink:href="#DejaVuSans-31"/>
       <use xlink:href="#DejaVuSans-32" x="63.623047"/>
       <use xlink:href="#DejaVuSans-30" x="127.246094"/>
      </g>
     </g>
    </g>
    <g id="ytick_5">
     <g id="line2d_10">
      <g>
       <use xlink:href="#m6b49e35b52" x="50.96" y="162.537512" style="stroke: #000000; stroke-width: 0.8"/>
      </g>
     </g>
     <g id="text_11">
      <!-- 140 -->
      <g transform="translate(24.8725 166.336731) scale(0.1 -0.1)">
       <use xlink:href="#DejaVuSans-31"/>
       <use xlink:href="#DejaVuSans-34" x="63.623047"/>
       <use xlink:href="#DejaVuSans-30" x="127.246094"/>
      </g>
     </g>
    </g>
    <g id="ytick_6">
     <g id="line2d_11">
      <g>
       <use xlink:href="#m6b49e35b52" x="50.96" y="112.891579" style="stroke: #000000; stroke-width: 0.8"/>
      </g>
     </g>
     <g id="text_12">
      <!-- 160 -->
      <g transform="translate(24.8725 116.690798) scale(0.1 -0.1)">
       <use xlink:href="#DejaVuSans-31"/>
       <use xlink:href="#DejaVuSans-36" x="63.623047"/>
       <use xlink:href="#DejaVuSans-30" x="127.246094"/>
      </g>
     </g>
    </g>
    <g id="ytick_7">
     <g id="line2d_12">
      <g>
       <use xlink:href="#m6b49e35b52" x="50.96" y="63.245646" style="stroke: #000000; stroke-width: 0.8"/>
      </g>
     </g>
     <g id="text_13">
      <!-- 180 -->
      <g transform="translate(24.8725 67.044865) scale(0.1 -0.1)">
       <use xlink:href="#DejaVuSans-31"/>
       <use xlink:href="#DejaVuSans-38" x="63.623047"/>
       <use xlink:href="#DejaVuSans-30" x="127.246094"/>
      </g>
     </g>
    </g>
    <g id="text_14">
     <!-- QRS duration -->
     <g transform="translate(18.792812 241.673281) rotate(-90) scale(0.1 -0.1)">
      <defs>
       <path id="DejaVuSans-51" d="M 2522 4238 
Q 1834 4238 1429 3725 
Q 1025 3213 1025 2328 
Q 1025 1447 1429 934 
Q 1834 422 2522 422 
Q 3209 422 3611 934 
Q 4013 1447 4013 2328 
Q 4013 3213 3611 3725 
Q 3209 4238 2522 4238 
z
M 3406 84 
L 4238 -825 
L 3475 -825 
L 2784 -78 
Q 2681 -84 2626 -87 
Q 2572 -91 2522 -91 
Q 1538 -91 948 567 
Q 359 1225 359 2328 
Q 359 3434 948 4092 
Q 1538 4750 2522 4750 
Q 3503 4750 4090 4092 
Q 4678 3434 4678 2328 
Q 4678 1516 4351 937 
Q 4025 359 3406 84 
z
" transform="scale(0.015625)"/>
       <path id="DejaVuSans-52" d="M 2841 2188 
Q 3044 2119 3236 1894 
Q 3428 1669 3622 1275 
L 4263 0 
L 3584 0 
L 2988 1197 
Q 2756 1666 2539 1819 
Q 2322 1972 1947 1972 
L 1259 1972 
L 1259 0 
L 628 0 
L 628 4666 
L 2053 4666 
Q 2853 4666 3247 4331 
Q 3641 3997 3641 3322 
Q 3641 2881 3436 2590 
Q 3231 2300 2841 2188 
z
M 1259 4147 
L 1259 2491 
L 2053 2491 
Q 2509 2491 2742 2702 
Q 2975 2913 2975 3322 
Q 2975 3731 2742 3939 
Q 2509 4147 2053 4147 
L 1259 4147 
z
" transform="scale(0.015625)"/>
       <path id="DejaVuSans-53" d="M 3425 4513 
L 3425 3897 
Q 3066 4069 2747 4153 
Q 2428 4238 2131 4238 
Q 1616 4238 1336 4038 
Q 1056 3838 1056 3469 
Q 1056 3159 1242 3001 
Q 1428 2844 1947 2747 
L 2328 2669 
Q 3034 2534 3370 2195 
Q 3706 1856 3706 1288 
Q 3706 609 3251 259 
Q 2797 -91 1919 -91 
Q 1588 -91 1214 -16 
Q 841 59 441 206 
L 441 856 
Q 825 641 1194 531 
Q 1563 422 1919 422 
Q 2459 422 2753 634 
Q 3047 847 3047 1241 
Q 3047 1584 2836 1778 
Q 2625 1972 2144 2069 
L 1759 2144 
Q 1053 2284 737 2584 
Q 422 2884 422 3419 
Q 422 4038 858 4394 
Q 1294 4750 2059 4750 
Q 2388 4750 2728 4690 
Q 3069 4631 3425 4513 
z
" transform="scale(0.015625)"/>
       <path id="DejaVuSans-20" transform="scale(0.015625)"/>
       <path id="DejaVuSans-75" d="M 544 1381 
L 544 3500 
L 1119 3500 
L 1119 1403 
Q 1119 906 1312 657 
Q 1506 409 1894 409 
Q 2359 409 2629 706 
Q 2900 1003 2900 1516 
L 2900 3500 
L 3475 3500 
L 3475 0 
L 2900 0 
L 2900 538 
Q 2691 219 2414 64 
Q 2138 -91 1772 -91 
Q 1169 -91 856 284 
Q 544 659 544 1381 
z
M 1991 3584 
L 1991 3584 
z
" transform="scale(0.015625)"/>
       <path id="DejaVuSans-72" d="M 2631 2963 
Q 2534 3019 2420 3045 
Q 2306 3072 2169 3072 
Q 1681 3072 1420 2755 
Q 1159 2438 1159 1844 
L 1159 0 
L 581 0 
L 581 3500 
L 1159 3500 
L 1159 2956 
Q 1341 3275 1631 3429 
Q 1922 3584 2338 3584 
Q 2397 3584 2469 3576 
Q 2541 3569 2628 3553 
L 2631 2963 
z
" transform="scale(0.015625)"/>
       <path id="DejaVuSans-61" d="M 2194 1759 
Q 1497 1759 1228 1600 
Q 959 1441 959 1056 
Q 959 750 1161 570 
Q 1363 391 1709 391 
Q 2188 391 2477 730 
Q 2766 1069 2766 1631 
L 2766 1759 
L 2194 1759 
z
M 3341 1997 
L 3341 0 
L 2766 0 
L 2766 531 
Q 2569 213 2275 61 
Q 1981 -91 1556 -91 
Q 1019 -91 701 211 
Q 384 513 384 1019 
Q 384 1609 779 1909 
Q 1175 2209 1959 2209 
L 2766 2209 
L 2766 2266 
Q 2766 2663 2505 2880 
Q 2244 3097 1772 3097 
Q 1472 3097 1187 3025 
Q 903 2953 641 2809 
L 641 3341 
Q 956 3463 1253 3523 
Q 1550 3584 1831 3584 
Q 2591 3584 2966 3190 
Q 3341 2797 3341 1997 
z
" transform="scale(0.015625)"/>
       <path id="DejaVuSans-74" d="M 1172 4494 
L 1172 3500 
L 2356 3500 
L 2356 3053 
L 1172 3053 
L 1172 1153 
Q 1172 725 1289 603 
Q 1406 481 1766 481 
L 2356 481 
L 2356 0 
L 1766 0 
Q 1100 0 847 248 
Q 594 497 594 1153 
L 594 3053 
L 172 3053 
L 172 3500 
L 594 3500 
L 594 4494 
L 1172 4494 
z
" transform="scale(0.015625)"/>
       <path id="DejaVuSans-69" d="M 603 3500 
L 1178 3500 
L 1178 0 
L 603 0 
L 603 3500 
z
M 603 4863 
L 1178 4863 
L 1178 4134 
L 603 4134 
L 603 4863 
z
" transform="scale(0.015625)"/>
       <path id="DejaVuSans-6f" d="M 1959 3097 
Q 1497 3097 1228 2736 
Q 959 2375 959 1747 
Q 959 1119 1226 758 
Q 1494 397 1959 397 
Q 2419 397 2687 759 
Q 2956 1122 2956 1747 
Q 2956 2369 2687 2733 
Q 2419 3097 1959 3097 
z
M 1959 3584 
Q 2709 3584 3137 3096 
Q 3566 2609 3566 1747 
Q 3566 888 3137 398 
Q 2709 -91 1959 -91 
Q 1206 -91 779 398 
Q 353 888 353 1747 
Q 353 2609 779 3096 
Q 1206 3584 1959 3584 
z
" transform="scale(0.015625)"/>
      </defs>
      <use xlink:href="#DejaVuSans-51"/>
      <use xlink:href="#DejaVuSans-52" x="78.710938"/>
      <use xlink:href="#DejaVuSans-53" x="148.193359"/>
      <use xlink:href="#DejaVuSans-20" x="211.669922"/>
      <use xlink:href="#DejaVuSans-64" x="243.457031"/>
      <use xlink:href="#DejaVuSans-75" x="306.933594"/>
      <use xlink:href="#DejaVuSans-72" x="370.3125"/>
      <use xlink:href="#DejaVuSans-61" x="411.425781"/>
      <use xlink:href="#DejaVuSans-74" x="472.705078"/>
      <use xlink:href="#DejaVuSans-69" x="511.914062"/>
      <use xlink:href="#DejaVuSans-6f" x="539.697266"/>
      <use xlink:href="#DejaVuSans-6e" x="600.878906"/>
     </g>
    </g>
   </g>
   <g id="line2d_13">
    <path d="M 77.724668 261.829378 
L 80.86729 318.922201 
L 81.914831 316.439904 
L 82.962372 301.546124 
L 86.104994 318.922201 
L 89.247617 318.922201 
L 90.295158 323.886794 
L 92.390239 336.298278 
L 93.43778 284.170048 
L 94.485321 306.510718 
L 95.532862 304.028421 
L 96.580403 286.652344 
L 97.627943 333.815981 
L 98.675484 323.886794 
L 99.723025 306.510718 
L 107.055811 333.815981 
L 108.103352 323.886794 
L 109.150892 316.439904 
L 111.245974 338.780574 
L 112.293515 254.382488 
L 114.388597 311.475311 
L 116.483678 311.475311 
L 117.531219 313.957608 
L 118.57876 281.687751 
L 119.626301 301.546124 
L 120.673841 296.581531 
L 123.816464 328.851388 
L 125.911546 311.475311 
L 126.959086 308.993014 
L 128.006627 304.028421 
L 133.244331 313.957608 
L 134.291872 286.652344 
L 136.386954 304.028421 
L 139.529576 321.404498 
L 140.577117 306.510718 
L 142.672199 311.475311 
L 144.76728 333.815981 
L 146.862362 294.099234 
L 150.004984 279.205455 
L 152.100066 294.099234 
L 156.290229 286.652344 
L 157.33777 316.439904 
L 158.385311 304.028421 
L 159.432852 281.687751 
L 168.860719 301.546124 
L 170.955801 313.957608 
L 174.098423 294.099234 
L 177.241046 301.546124 
L 178.288586 316.439904 
L 181.431209 266.793971 
L 182.47875 296.581531 
L 186.668913 316.439904 
L 188.763995 276.723158 
L 189.811535 306.510718 
L 190.859076 316.439904 
L 191.906617 313.957608 
L 192.954158 294.099234 
L 195.04924 323.886794 
L 197.144321 271.758565 
L 198.191862 291.616938 
L 199.239403 286.652344 
L 200.286944 326.369091 
L 201.334484 299.063828 
L 202.382025 286.652344 
L 203.429566 333.815981 
L 204.477107 323.886794 
L 205.524648 318.922201 
L 206.572189 294.099234 
L 208.66727 326.369091 
L 209.714811 264.311675 
L 210.762352 289.134641 
L 211.809893 304.028421 
L 212.857433 316.439904 
L 213.904974 261.829378 
L 216.000056 294.099234 
L 217.047597 313.957608 
L 219.142678 311.475311 
L 220.190219 299.063828 
L 221.23776 308.993014 
L 223.332842 274.240861 
L 224.380382 306.510718 
L 228.570546 296.581531 
L 229.618087 311.475311 
L 231.713168 299.063828 
L 232.760709 234.524115 
L 233.80825 289.134641 
L 236.950872 281.687751 
L 237.998413 323.886794 
L 240.093495 304.028421 
L 241.141036 301.546124 
L 242.188576 284.170048 
L 243.236117 308.993014 
L 244.283658 229.559522 
L 245.331199 281.687751 
L 246.37874 308.993014 
L 247.42628 326.369091 
L 248.473821 316.439904 
L 249.521362 311.475311 
L 252.663985 246.935598 
L 253.711525 274.240861 
L 254.759066 261.829378 
L 258.949229 316.439904 
L 259.99677 318.922201 
L 261.044311 294.099234 
L 263.139393 299.063828 
L 265.234474 281.687751 
L 273.614801 328.851388 
L 274.662342 308.993014 
L 277.804964 274.240861 
L 278.852505 328.851388 
L 279.900046 274.240861 
L 283.042668 269.276268 
L 285.13775 356.156651 
L 286.185291 296.581531 
L 287.232832 333.815981 
L 289.327913 341.262871 
L 290.375454 286.652344 
L 292.470536 296.581531 
L 295.613158 279.205455 
L 299.803321 313.957608 
L 305.041025 316.439904 
L 306.088566 294.099234 
L 308.183648 301.546124 
L 311.32627 299.063828 
L 313.421352 301.546124 
L 314.468893 299.063828 
L 315.516434 318.922201 
L 317.611515 326.369091 
L 318.659056 289.134641 
L 319.706597 289.134641 
L 323.89676 308.993014 
L 324.944301 301.546124 
L 325.991842 271.758565 
L 327.039383 286.652344 
L 328.086924 266.793971 
L 330.182005 279.205455 
L 332.277087 299.063828 
L 333.324628 343.745167 
L 335.419709 338.780574 
L 340.657413 264.311675 
L 341.704954 313.957608 
L 346.942658 311.475311 
L 349.03774 286.652344 
L 350.085281 308.993014 
L 351.132822 286.652344 
L 352.180362 316.439904 
L 354.275444 308.993014 
L 355.322985 286.652344 
L 356.370526 299.063828 
L 357.418066 313.957608 
L 358.465607 358.638947 
L 360.560689 313.957608 
L 361.60823 304.028421 
L 363.703311 316.439904 
L 366.845934 294.099234 
L 367.893475 284.170048 
L 368.941015 256.864785 
L 369.988556 311.475311 
L 374.17872 304.028421 
L 375.22626 308.993014 
L 376.273801 276.723158 
L 377.321342 301.546124 
L 378.368883 284.170048 
L 380.463964 259.347081 
L 387.79675 286.652344 
L 389.891832 316.439904 
L 394.081995 271.758565 
L 399.319699 286.652344 
L 400.36724 286.652344 
L 403.509862 299.063828 
L 404.557403 318.922201 
L 406.652485 281.687751 
L 407.700026 299.063828 
L 410.842648 291.616938 
L 415.032811 326.369091 
L 418.175434 311.475311 
L 420.270516 281.687751 
L 421.318056 261.829378 
L 423.413138 249.417895 
L 425.50822 301.546124 
L 427.603301 321.404498 
L 428.650842 294.099234 
L 429.698383 294.099234 
L 432.841005 311.475311 
L 435.983628 326.369091 
L 438.078709 296.581531 
L 440.173791 274.240861 
L 441.221332 326.369091 
L 443.316414 251.900191 
L 446.459036 269.276268 
L 456.934444 284.170048 
L 461.124607 266.793971 
L 463.219689 301.546124 
L 465.314771 306.510718 
L 469.504934 336.298278 
L 470.552475 294.099234 
L 474.742638 271.758565 
L 475.790179 289.134641 
L 477.885261 306.510718 
L 482.075424 279.205455 
L 483.122965 331.333684 
L 484.170505 244.453301 
L 485.218046 308.993014 
L 486.265587 321.404498 
L 487.313128 304.028421 
L 489.40821 306.510718 
L 492.550832 306.510718 
L 495.693454 311.475311 
L 497.788536 328.851388 
L 498.836077 316.439904 
L 499.883618 333.815981 
L 500.931159 296.581531 
L 501.978699 299.063828 
L 507.216403 296.581531 
L 508.263944 316.439904 
L 509.311485 294.099234 
L 510.359026 311.475311 
L 512.454108 323.886794 
L 513.501648 316.439904 
L 515.59673 276.723158 
L 516.644271 304.028421 
L 517.691812 276.723158 
L 519.786893 294.099234 
L 520.834434 373.532727 
L 522.929516 304.028421 
L 529.214761 291.616938 
L 530.262301 313.957608 
L 531.309842 318.922201 
L 532.357383 294.099234 
L 533.404924 291.616938 
L 534.452465 276.723158 
L 535.500006 291.616938 
L 536.547546 326.369091 
L 537.595087 299.063828 
L 539.690169 308.993014 
L 540.73771 284.170048 
L 541.78525 308.993014 
L 542.832791 311.475311 
L 545.975414 279.205455 
L 547.022955 313.957608 
L 547.022955 313.957608 
" clip-path="url(#pb5d0551805)" style="fill: none; stroke: #0173b2; stroke-width: 1.5; stroke-linecap: square"/>
   </g>
   <g id="line2d_14">
    <path d="M 74.582045 284.170048 
L 75.629586 308.993014 
L 76.677127 167.502105 
L 78.772209 291.616938 
L 79.81975 261.829378 
L 84.009913 289.134641 
L 85.057454 256.864785 
L 87.152535 316.439904 
L 88.200076 284.170048 
L 91.342699 306.510718 
L 100.770566 239.488708 
L 101.818107 276.723158 
L 102.865648 274.240861 
L 103.913188 286.652344 
L 104.960729 271.758565 
L 106.00827 299.063828 
L 110.198433 306.510718 
L 113.341056 299.063828 
L 115.436137 276.723158 
L 121.721382 328.851388 
L 122.768923 323.886794 
L 124.864005 316.439904 
L 129.054168 254.382488 
L 130.101709 281.687751 
L 131.14925 291.616938 
L 132.19679 318.922201 
L 135.339413 284.170048 
L 137.434495 311.475311 
L 138.482035 316.439904 
L 143.719739 306.510718 
L 145.814821 328.851388 
L 147.909903 321.404498 
L 148.957444 259.347081 
L 153.147607 291.616938 
L 154.195148 276.723158 
L 155.242688 276.723158 
L 160.480393 279.205455 
L 161.527933 261.829378 
L 162.575474 304.028421 
L 163.623015 105.444689 
L 164.670556 271.758565 
L 165.718097 227.077225 
L 166.765637 88.068612 
L 167.813178 169.984402 
L 169.90826 306.510718 
L 172.003342 331.333684 
L 173.050882 269.276268 
L 175.145964 256.864785 
L 179.336127 313.957608 
L 183.526291 331.333684 
L 184.573831 269.276268 
L 185.621372 306.510718 
L 187.716454 269.276268 
L 194.001699 279.205455 
L 196.09678 246.935598 
L 207.619729 274.240861 
L 214.952515 311.475311 
L 218.095138 256.864785 
L 222.285301 299.063828 
L 225.427923 269.276268 
L 226.475464 281.687751 
L 227.523005 256.864785 
L 230.665627 299.063828 
L 234.855791 353.674354 
L 235.903331 336.298278 
L 239.045954 279.205455 
L 250.568903 306.510718 
L 251.616444 274.240861 
L 255.806607 286.652344 
L 256.854148 291.616938 
L 257.901689 333.815981 
L 262.091852 313.957608 
L 264.186934 284.170048 
L 266.282015 266.793971 
L 267.329556 341.262871 
L 268.377097 301.546124 
L 269.424638 281.687751 
L 270.472178 237.006411 
L 271.519719 241.971005 
L 272.56726 130.267656 
L 275.709883 294.099234 
L 276.757423 294.099234 
L 280.947587 261.829378 
L 281.995127 271.758565 
L 284.090209 321.404498 
L 288.280372 264.311675 
L 291.422995 147.643732 
L 293.518076 311.475311 
L 294.565617 286.652344 
L 296.660699 284.170048 
L 297.70824 234.524115 
L 298.755781 289.134641 
L 300.850862 318.922201 
L 301.898403 328.851388 
L 302.945944 281.687751 
L 303.993485 266.793971 
L 307.136107 266.793971 
L 309.231189 306.510718 
L 310.27873 286.652344 
L 312.373811 333.815981 
L 316.563975 279.205455 
L 320.754138 254.382488 
L 322.849219 291.616938 
L 329.134464 316.439904 
L 331.229546 311.475311 
L 334.372168 326.369091 
L 336.46725 249.417895 
L 337.514791 274.240861 
L 338.562332 294.099234 
L 339.609873 241.971005 
L 342.752495 296.581531 
L 343.800036 306.510718 
L 344.847577 284.170048 
L 345.895117 279.205455 
L 347.990199 301.546124 
L 353.227903 266.793971 
L 359.513148 286.652344 
L 362.655771 301.546124 
L 364.750852 296.581531 
L 365.798393 331.333684 
L 371.036097 306.510718 
L 372.083638 251.900191 
L 373.131179 299.063828 
L 379.416424 264.311675 
L 381.511505 182.395885 
L 382.559046 313.957608 
L 383.606587 254.382488 
L 384.654128 269.276268 
L 385.701669 184.878182 
L 386.749209 284.170048 
L 388.844291 209.701148 
L 390.939373 301.546124 
L 391.986913 269.276268 
L 393.034454 276.723158 
L 395.129536 284.170048 
L 396.177077 311.475311 
L 397.224618 269.276268 
L 398.272158 281.687751 
L 401.414781 204.736555 
L 402.462322 249.417895 
L 405.604944 304.028421 
L 408.747567 271.758565 
L 409.795107 338.780574 
L 411.890189 301.546124 
L 412.93773 244.453301 
L 413.985271 284.170048 
L 416.080352 289.134641 
L 417.127893 239.488708 
L 419.222975 304.028421 
L 422.365597 229.559522 
L 424.460679 264.311675 
L 426.55576 326.369091 
L 430.745924 271.758565 
L 431.793465 291.616938 
L 433.888546 299.063828 
L 434.936087 286.652344 
L 437.031169 274.240861 
L 439.12625 326.369091 
L 442.268873 328.851388 
L 444.363954 281.687751 
L 445.411495 249.417895 
L 447.506577 259.347081 
L 448.554118 304.028421 
L 449.601658 301.546124 
L 450.649199 266.793971 
L 451.69674 308.993014 
L 452.744281 279.205455 
L 453.791822 301.546124 
L 454.839363 256.864785 
L 455.886903 276.723158 
L 457.981985 261.829378 
L 459.029526 281.687751 
L 460.077067 276.723158 
L 462.172148 147.643732 
L 464.26723 318.922201 
L 466.362312 301.546124 
L 467.409852 321.404498 
L 468.457393 246.935598 
L 471.600016 217.148038 
L 472.647556 296.581531 
L 473.695097 306.510718 
L 476.83772 279.205455 
L 478.932801 269.276268 
L 479.980342 296.581531 
L 481.027883 43.387273 
L 488.360669 145.161435 
L 490.45575 237.006411 
L 491.503291 241.971005 
L 493.598373 279.205455 
L 494.645914 274.240861 
L 496.740995 50.834163 
L 503.02624 321.404498 
L 504.073781 279.205455 
L 505.121322 294.099234 
L 506.168863 271.758565 
L 511.406567 266.793971 
L 514.549189 306.510718 
L 518.739352 162.537512 
L 521.881975 179.913589 
L 523.977057 318.922201 
L 525.024597 204.736555 
L 526.072138 313.957608 
L 527.119679 291.616938 
L 528.16722 311.475311 
L 538.642628 291.616938 
L 543.880332 261.829378 
L 544.927873 241.971005 
L 544.927873 241.971005 
" clip-path="url(#pb5d0551805)" style="fill: none; stroke: #de8f05; stroke-opacity: 0.5; stroke-width: 1.5; stroke-linecap: square"/>
   </g>
   <g id="patch_3">
    <path d="M 50.96 390.04 
L 50.96 26.88 
" style="fill: none; stroke: #000000; stroke-width: 0.8; stroke-linejoin: miter; stroke-linecap: square"/>
   </g>
   <g id="patch_4">
    <path d="M 570.645 390.04 
L 570.645 26.88 
" style="fill: none; stroke: #000000; stroke-width: 0.8; stroke-linejoin: miter; stroke-linecap: square"/>
   </g>
   <g id="patch_5">
    <path d="M 50.96 390.04 
L 570.645 390.04 
" style="fill: none; stroke: #000000; stroke-width: 0.8; stroke-linejoin: miter; stroke-linecap: square"/>
   </g>
   <g id="patch_6">
    <path d="M 50.96 26.88 
L 570.645 26.88 
" style="fill: none; stroke: #000000; stroke-width: 0.8; stroke-linejoin: miter; stroke-linecap: square"/>
   </g>
   <g id="text_15">
    <!-- QRS duration for Class 0 vs Class 1 -->
    <g transform="translate(205.374062 20.88) scale(0.12 -0.12)">
     <defs>
      <path id="DejaVuSans-66" d="M 2375 4863 
L 2375 4384 
L 1825 4384 
Q 1516 4384 1395 4259 
Q 1275 4134 1275 3809 
L 1275 3500 
L 2222 3500 
L 2222 3053 
L 1275 3053 
L 1275 0 
L 697 0 
L 697 3053 
L 147 3053 
L 147 3500 
L 697 3500 
L 697 3744 
Q 697 4328 969 4595 
Q 1241 4863 1831 4863 
L 2375 4863 
z
" transform="scale(0.015625)"/>
      <path id="DejaVuSans-43" d="M 4122 4306 
L 4122 3641 
Q 3803 3938 3442 4084 
Q 3081 4231 2675 4231 
Q 1875 4231 1450 3742 
Q 1025 3253 1025 2328 
Q 1025 1406 1450 917 
Q 1875 428 2675 428 
Q 3081 428 3442 575 
Q 3803 722 4122 1019 
L 4122 359 
Q 3791 134 3420 21 
Q 3050 -91 2638 -91 
Q 1578 -91 968 557 
Q 359 1206 359 2328 
Q 359 3453 968 4101 
Q 1578 4750 2638 4750 
Q 3056 4750 3426 4639 
Q 3797 4528 4122 4306 
z
" transform="scale(0.015625)"/>
      <path id="DejaVuSans-6c" d="M 603 4863 
L 1178 4863 
L 1178 0 
L 603 0 
L 603 4863 
z
" transform="scale(0.015625)"/>
      <path id="DejaVuSans-73" d="M 2834 3397 
L 2834 2853 
Q 2591 2978 2328 3040 
Q 2066 3103 1784 3103 
Q 1356 3103 1142 2972 
Q 928 2841 928 2578 
Q 928 2378 1081 2264 
Q 1234 2150 1697 2047 
L 1894 2003 
Q 2506 1872 2764 1633 
Q 3022 1394 3022 966 
Q 3022 478 2636 193 
Q 2250 -91 1575 -91 
Q 1294 -91 989 -36 
Q 684 19 347 128 
L 347 722 
Q 666 556 975 473 
Q 1284 391 1588 391 
Q 1994 391 2212 530 
Q 2431 669 2431 922 
Q 2431 1156 2273 1281 
Q 2116 1406 1581 1522 
L 1381 1569 
Q 847 1681 609 1914 
Q 372 2147 372 2553 
Q 372 3047 722 3315 
Q 1072 3584 1716 3584 
Q 2034 3584 2315 3537 
Q 2597 3491 2834 3397 
z
" transform="scale(0.015625)"/>
      <path id="DejaVuSans-76" d="M 191 3500 
L 800 3500 
L 1894 563 
L 2988 3500 
L 3597 3500 
L 2284 0 
L 1503 0 
L 191 3500 
z
" transform="scale(0.015625)"/>
     </defs>
     <use xlink:href="#DejaVuSans-51"/>
     <use xlink:href="#DejaVuSans-52" x="78.710938"/>
     <use xlink:href="#DejaVuSans-53" x="148.193359"/>
     <use xlink:href="#DejaVuSans-20" x="211.669922"/>
     <use xlink:href="#DejaVuSans-64" x="243.457031"/>
     <use xlink:href="#DejaVuSans-75" x="306.933594"/>
     <use xlink:href="#DejaVuSans-72" x="370.3125"/>
     <use xlink:href="#DejaVuSans-61" x="411.425781"/>
     <use xlink:href="#DejaVuSans-74" x="472.705078"/>
     <use xlink:href="#DejaVuSans-69" x="511.914062"/>
     <use xlink:href="#DejaVuSans-6f" x="539.697266"/>
     <use xlink:href="#DejaVuSans-6e" x="600.878906"/>
     <use xlink:href="#DejaVuSans-20" x="664.257812"/>
     <use xlink:href="#DejaVuSans-66" x="696.044922"/>
     <use xlink:href="#DejaVuSans-6f" x="731.25"/>
     <use xlink:href="#DejaVuSans-72" x="792.431641"/>
     <use xlink:href="#DejaVuSans-20" x="833.544922"/>
     <use xlink:href="#DejaVuSans-43" x="865.332031"/>
     <use xlink:href="#DejaVuSans-6c" x="935.15625"/>
     <use xlink:href="#DejaVuSans-61" x="962.939453"/>
     <use xlink:href="#DejaVuSans-73" x="1024.21875"/>
     <use xlink:href="#DejaVuSans-73" x="1076.318359"/>
     <use xlink:href="#DejaVuSans-20" x="1128.417969"/>
     <use xlink:href="#DejaVuSans-30" x="1160.205078"/>
     <use xlink:href="#DejaVuSans-20" x="1223.828125"/>
     <use xlink:href="#DejaVuSans-76" x="1255.615234"/>
     <use xlink:href="#DejaVuSans-73" x="1314.794922"/>
     <use xlink:href="#DejaVuSans-20" x="1366.894531"/>
     <use xlink:href="#DejaVuSans-43" x="1398.681641"/>
     <use xlink:href="#DejaVuSans-6c" x="1468.505859"/>
     <use xlink:href="#DejaVuSans-61" x="1496.289062"/>
     <use xlink:href="#DejaVuSans-73" x="1557.568359"/>
     <use xlink:href="#DejaVuSans-73" x="1609.667969"/>
     <use xlink:href="#DejaVuSans-20" x="1661.767578"/>
     <use xlink:href="#DejaVuSans-31" x="1693.554688"/>
    </g>
   </g>
   <g id="legend_1">
    <g id="patch_7">
     <path d="M 57.96 64.23625 
L 125.808437 64.23625 
Q 127.808437 64.23625 127.808437 62.23625 
L 127.808437 33.88 
Q 127.808437 31.88 125.808437 31.88 
L 57.96 31.88 
Q 55.96 31.88 55.96 33.88 
L 55.96 62.23625 
Q 55.96 64.23625 57.96 64.23625 
z
" style="fill: #ffffff; opacity: 0.8; stroke: #cccccc; stroke-linejoin: miter"/>
    </g>
    <g id="line2d_15">
     <path d="M 59.96 39.978437 
L 69.96 39.978437 
L 79.96 39.978437 
" style="fill: none; stroke: #0173b2; stroke-width: 1.5; stroke-linecap: square"/>
    </g>
    <g id="text_16">
     <!-- Class 0 -->
     <g transform="translate(87.96 43.478437) scale(0.1 -0.1)">
      <use xlink:href="#DejaVuSans-43"/>
      <use xlink:href="#DejaVuSans-6c" x="69.824219"/>
      <use xlink:href="#DejaVuSans-61" x="97.607422"/>
      <use xlink:href="#DejaVuSans-73" x="158.886719"/>
      <use xlink:href="#DejaVuSans-73" x="210.986328"/>
      <use xlink:href="#DejaVuSans-20" x="263.085938"/>
      <use xlink:href="#DejaVuSans-30" x="294.873047"/>
     </g>
    </g>
    <g id="line2d_16">
     <path d="M 59.96 54.656563 
L 69.96 54.656563 
L 79.96 54.656563 
" style="fill: none; stroke: #de8f05; stroke-opacity: 0.5; stroke-width: 1.5; stroke-linecap: square"/>
    </g>
    <g id="text_17">
     <!-- Class 1 -->
     <g transform="translate(87.96 58.156563) scale(0.1 -0.1)">
      <use xlink:href="#DejaVuSans-43"/>
      <use xlink:href="#DejaVuSans-6c" x="69.824219"/>
      <use xlink:href="#DejaVuSans-61" x="97.607422"/>
      <use xlink:href="#DejaVuSans-73" x="158.886719"/>
      <use xlink:href="#DejaVuSans-73" x="210.986328"/>
      <use xlink:href="#DejaVuSans-20" x="263.085938"/>
      <use xlink:href="#DejaVuSans-31" x="294.873047"/>
     </g>
    </g>
   </g>
  </g>
  <g id="axes_2">
   <g id="patch_8">
    <path d="M 621.515 390.04 
L 1141.2 390.04 
L 1141.2 26.88 
L 621.515 26.88 
z
" style="fill: #ffffff"/>
   </g>
   <g id="matplotlib.axis_3">
    <g id="xtick_6">
     <g id="line2d_17">
      <g>
       <use xlink:href="#m857974c429" x="645.137045" y="390.04" style="stroke: #000000; stroke-width: 0.8"/>
      </g>
     </g>
     <g id="text_18">
      <!-- 0 -->
      <g transform="translate(641.955795 404.638438) scale(0.1 -0.1)">
       <use xlink:href="#DejaVuSans-30"/>
      </g>
     </g>
    </g>
    <g id="xtick_7">
     <g id="line2d_18">
      <g>
       <use xlink:href="#m857974c429" x="749.891127" y="390.04" style="stroke: #000000; stroke-width: 0.8"/>
      </g>
     </g>
     <g id="text_19">
      <!-- 100 -->
      <g transform="translate(740.347377 404.638438) scale(0.1 -0.1)">
       <use xlink:href="#DejaVuSans-31"/>
       <use xlink:href="#DejaVuSans-30" x="63.623047"/>
       <use xlink:href="#DejaVuSans-30" x="127.246094"/>
      </g>
     </g>
    </g>
    <g id="xtick_8">
     <g id="line2d_19">
      <g>
       <use xlink:href="#m857974c429" x="854.645209" y="390.04" style="stroke: #000000; stroke-width: 0.8"/>
      </g>
     </g>
     <g id="text_20">
      <!-- 200 -->
      <g transform="translate(845.101459 404.638438) scale(0.1 -0.1)">
       <use xlink:href="#DejaVuSans-32"/>
       <use xlink:href="#DejaVuSans-30" x="63.623047"/>
       <use xlink:href="#DejaVuSans-30" x="127.246094"/>
      </g>
     </g>
    </g>
    <g id="xtick_9">
     <g id="line2d_20">
      <g>
       <use xlink:href="#m857974c429" x="959.399291" y="390.04" style="stroke: #000000; stroke-width: 0.8"/>
      </g>
     </g>
     <g id="text_21">
      <!-- 300 -->
      <g transform="translate(949.855541 404.638438) scale(0.1 -0.1)">
       <use xlink:href="#DejaVuSans-33"/>
       <use xlink:href="#DejaVuSans-30" x="63.623047"/>
       <use xlink:href="#DejaVuSans-30" x="127.246094"/>
      </g>
     </g>
    </g>
    <g id="xtick_10">
     <g id="line2d_21">
      <g>
       <use xlink:href="#m857974c429" x="1064.153373" y="390.04" style="stroke: #000000; stroke-width: 0.8"/>
      </g>
     </g>
     <g id="text_22">
      <!-- 400 -->
      <g transform="translate(1054.609623 404.638438) scale(0.1 -0.1)">
       <use xlink:href="#DejaVuSans-34"/>
       <use xlink:href="#DejaVuSans-30" x="63.623047"/>
       <use xlink:href="#DejaVuSans-30" x="127.246094"/>
      </g>
     </g>
    </g>
    <g id="text_23">
     <!-- Index -->
     <g transform="translate(867.591094 418.316562) scale(0.1 -0.1)">
      <use xlink:href="#DejaVuSans-49"/>
      <use xlink:href="#DejaVuSans-6e" x="29.492188"/>
      <use xlink:href="#DejaVuSans-64" x="92.871094"/>
      <use xlink:href="#DejaVuSans-65" x="156.347656"/>
      <use xlink:href="#DejaVuSans-78" x="216.121094"/>
     </g>
    </g>
   </g>
   <g id="matplotlib.axis_4">
    <g id="ytick_8">
     <g id="line2d_22">
      <g>
       <use xlink:href="#m6b49e35b52" x="621.515" y="383.207319" style="stroke: #000000; stroke-width: 0.8"/>
      </g>
     </g>
     <g id="text_24">
      <!-- 100 -->
      <g transform="translate(595.4275 387.006538) scale(0.1 -0.1)">
       <use xlink:href="#DejaVuSans-31"/>
       <use xlink:href="#DejaVuSans-30" x="63.623047"/>
       <use xlink:href="#DejaVuSans-30" x="127.246094"/>
      </g>
     </g>
    </g>
    <g id="ytick_9">
     <g id="line2d_23">
      <g>
       <use xlink:href="#m6b49e35b52" x="621.515" y="322.741119" style="stroke: #000000; stroke-width: 0.8"/>
      </g>
     </g>
     <g id="text_25">
      <!-- 150 -->
      <g transform="translate(595.4275 326.540338) scale(0.1 -0.1)">
       <defs>
        <path id="DejaVuSans-35" d="M 691 4666 
L 3169 4666 
L 3169 4134 
L 1269 4134 
L 1269 2991 
Q 1406 3038 1543 3061 
Q 1681 3084 1819 3084 
Q 2600 3084 3056 2656 
Q 3513 2228 3513 1497 
Q 3513 744 3044 326 
Q 2575 -91 1722 -91 
Q 1428 -91 1123 -41 
Q 819 9 494 109 
L 494 744 
Q 775 591 1075 516 
Q 1375 441 1709 441 
Q 2250 441 2565 725 
Q 2881 1009 2881 1497 
Q 2881 1984 2565 2268 
Q 2250 2553 1709 2553 
Q 1456 2553 1204 2497 
Q 953 2441 691 2322 
L 691 4666 
z
" transform="scale(0.015625)"/>
       </defs>
       <use xlink:href="#DejaVuSans-31"/>
       <use xlink:href="#DejaVuSans-35" x="63.623047"/>
       <use xlink:href="#DejaVuSans-30" x="127.246094"/>
      </g>
     </g>
    </g>
    <g id="ytick_10">
     <g id="line2d_24">
      <g>
       <use xlink:href="#m6b49e35b52" x="621.515" y="262.274918" style="stroke: #000000; stroke-width: 0.8"/>
      </g>
     </g>
     <g id="text_26">
      <!-- 200 -->
      <g transform="translate(595.4275 266.074137) scale(0.1 -0.1)">
       <use xlink:href="#DejaVuSans-32"/>
       <use xlink:href="#DejaVuSans-30" x="63.623047"/>
       <use xlink:href="#DejaVuSans-30" x="127.246094"/>
      </g>
     </g>
    </g>
    <g id="ytick_11">
     <g id="line2d_25">
      <g>
       <use xlink:href="#m6b49e35b52" x="621.515" y="201.808718" style="stroke: #000000; stroke-width: 0.8"/>
      </g>
     </g>
     <g id="text_27">
      <!-- 250 -->
      <g transform="translate(595.4275 205.607937) scale(0.1 -0.1)">
       <use xlink:href="#DejaVuSans-32"/>
       <use xlink:href="#DejaVuSans-35" x="63.623047"/>
       <use xlink:href="#DejaVuSans-30" x="127.246094"/>
      </g>
     </g>
    </g>
    <g id="ytick_12">
     <g id="line2d_26">
      <g>
       <use xlink:href="#m6b49e35b52" x="621.515" y="141.342517" style="stroke: #000000; stroke-width: 0.8"/>
      </g>
     </g>
     <g id="text_28">
      <!-- 300 -->
      <g transform="translate(595.4275 145.141736) scale(0.1 -0.1)">
       <use xlink:href="#DejaVuSans-33"/>
       <use xlink:href="#DejaVuSans-30" x="63.623047"/>
       <use xlink:href="#DejaVuSans-30" x="127.246094"/>
      </g>
     </g>
    </g>
    <g id="ytick_13">
     <g id="line2d_27">
      <g>
       <use xlink:href="#m6b49e35b52" x="621.515" y="80.876317" style="stroke: #000000; stroke-width: 0.8"/>
      </g>
     </g>
     <g id="text_29">
      <!-- 350 -->
      <g transform="translate(595.4275 84.675536) scale(0.1 -0.1)">
       <use xlink:href="#DejaVuSans-33"/>
       <use xlink:href="#DejaVuSans-35" x="63.623047"/>
       <use xlink:href="#DejaVuSans-30" x="127.246094"/>
      </g>
     </g>
    </g>
    <g id="text_30">
     <!-- T Interval -->
     <g transform="translate(589.347813 232.251406) rotate(-90) scale(0.1 -0.1)">
      <defs>
       <path id="DejaVuSans-54" d="M -19 4666 
L 3928 4666 
L 3928 4134 
L 2272 4134 
L 2272 0 
L 1638 0 
L 1638 4134 
L -19 4134 
L -19 4666 
z
" transform="scale(0.015625)"/>
      </defs>
      <use xlink:href="#DejaVuSans-54"/>
      <use xlink:href="#DejaVuSans-20" x="61.083984"/>
      <use xlink:href="#DejaVuSans-49" x="92.871094"/>
      <use xlink:href="#DejaVuSans-6e" x="122.363281"/>
      <use xlink:href="#DejaVuSans-74" x="185.742188"/>
      <use xlink:href="#DejaVuSans-65" x="224.951172"/>
      <use xlink:href="#DejaVuSans-72" x="286.474609"/>
      <use xlink:href="#DejaVuSans-76" x="327.587891"/>
      <use xlink:href="#DejaVuSans-61" x="386.767578"/>
      <use xlink:href="#DejaVuSans-6c" x="448.046875"/>
     </g>
    </g>
   </g>
   <g id="line2d_28">
    <path d="M 648.279668 287.670723 
L 651.42229 343.299627 
L 652.469831 314.275851 
L 653.517372 310.647879 
L 656.659994 322.741119 
L 659.802617 307.019907 
L 660.850158 299.763963 
L 662.945239 356.602191 
L 663.99278 292.508019 
L 665.040321 313.066527 
L 666.087862 275.577483 
L 667.135403 290.089371 
L 668.182943 299.763963 
L 669.230484 331.206387 
L 670.278025 323.950443 
L 677.610811 320.322471 
L 678.658352 282.833427 
L 679.705892 325.159767 
L 681.800974 338.462331 
L 682.848515 309.438555 
L 684.943597 303.391935 
L 687.038678 333.625035 
L 688.086219 310.647879 
L 689.13376 313.066527 
L 690.181301 329.997063 
L 691.228841 326.369091 
L 694.371464 331.206387 
L 696.466546 323.950443 
L 697.514086 338.462331 
L 698.561627 299.763963 
L 703.799331 304.601259 
L 704.846872 292.508019 
L 706.941954 293.717343 
L 710.084576 320.322471 
L 711.132117 302.182611 
L 712.179658 251.391002 
L 713.227199 332.415711 
L 715.32228 304.601259 
L 717.417362 320.322471 
L 720.559984 305.810583 
L 721.607525 308.229231 
L 722.655066 288.880047 
L 726.845229 288.880047 
L 727.89277 325.159767 
L 728.940311 343.299627 
L 729.987852 291.298695 
L 739.415719 236.879114 
L 741.510801 297.345315 
L 744.653423 271.94951 
L 746.748505 291.298695 
L 747.796046 270.740186 
L 748.843586 320.322471 
L 750.938668 362.648811 
L 751.986209 344.508951 
L 753.03375 284.042751 
L 757.223913 271.94951 
L 759.318995 258.646946 
L 760.366535 325.159767 
L 761.414076 302.182611 
L 763.509158 302.182611 
L 765.60424 316.694499 
L 767.699321 320.322471 
L 768.746862 315.485175 
L 769.794403 300.973287 
L 770.841944 317.903823 
L 771.889484 314.275851 
L 772.937025 293.717343 
L 773.984566 340.880979 
L 775.032107 333.625035 
L 776.079648 255.018974 
L 777.127189 322.741119 
L 780.269811 322.741119 
L 781.317352 292.508019 
L 782.364893 342.090303 
L 783.412433 326.369091 
L 784.459974 287.670723 
L 786.555056 310.647879 
L 787.602597 296.135991 
L 789.697678 342.090303 
L 790.745219 321.531795 
L 791.79276 320.322471 
L 793.887842 307.019907 
L 794.935382 315.485175 
L 799.125546 314.275851 
L 800.173087 319.113147 
L 802.268168 296.135991 
L 803.315709 219.948578 
L 804.36325 296.135991 
L 807.505872 286.461399 
L 808.553413 331.206387 
L 811.696036 285.252075 
L 812.743576 299.763963 
L 813.791117 345.718275 
L 814.838658 270.740186 
L 815.886199 304.601259 
L 816.93374 317.903823 
L 817.98128 363.858135 
L 819.028821 305.810583 
L 820.076362 210.273986 
L 823.218985 326.369091 
L 824.266525 303.391935 
L 825.314066 320.322471 
L 829.504229 320.322471 
L 830.55177 329.997063 
L 831.599311 303.391935 
L 833.694393 296.135991 
L 835.789474 302.182611 
L 844.169801 317.903823 
L 845.217342 350.555571 
L 848.359964 323.950443 
L 849.407505 274.368159 
L 850.455046 297.345315 
L 853.597668 299.763963 
L 855.69275 339.671655 
L 856.740291 238.088438 
L 857.787832 300.973287 
L 859.882913 326.369091 
L 860.930454 322.741119 
L 863.025536 302.182611 
L 866.168158 296.135991 
L 870.358321 334.834359 
L 875.596025 352.974219 
L 876.643566 259.85627 
L 878.738648 303.391935 
L 881.88127 284.042751 
L 883.976352 281.624103 
L 885.023893 321.531795 
L 886.071434 334.834359 
L 888.166515 307.019907 
L 889.214056 357.811515 
L 890.261597 264.693566 
L 892.356679 315.485175 
L 894.45176 317.903823 
L 895.499301 311.857203 
L 896.546842 298.554639 
L 897.594383 251.391002 
L 898.641924 285.252075 
L 900.737005 336.043683 
L 902.832087 201.808718 
L 903.879628 338.462331 
L 905.974709 309.438555 
L 911.212413 296.135991 
L 912.259954 296.135991 
L 917.497658 339.671655 
L 919.59274 303.391935 
L 920.640281 317.903823 
L 921.687822 319.113147 
L 922.735362 346.927599 
L 924.830444 265.90289 
L 925.877985 321.531795 
L 926.925526 307.019907 
L 927.973066 315.485175 
L 929.020607 292.508019 
L 931.115689 337.253007 
L 932.16323 332.415711 
L 934.258311 320.322471 
L 937.400934 304.601259 
L 938.448475 196.971422 
L 939.496015 300.973287 
L 940.543556 299.763963 
L 944.73372 352.974219 
L 945.78126 319.113147 
L 946.828801 326.369091 
L 947.876342 331.206387 
L 948.923883 276.786807 
L 951.018964 258.646946 
L 958.35175 242.925734 
L 960.446832 331.206387 
L 964.636995 232.041818 
L 969.874699 261.065594 
L 970.92224 314.275851 
L 974.064862 320.322471 
L 975.112403 333.625035 
L 977.207485 305.810583 
L 978.255026 337.253007 
L 981.397648 276.786807 
L 985.587811 332.415711 
L 988.730434 286.461399 
L 990.825516 307.019907 
L 991.873056 284.042751 
L 993.968138 290.089371 
L 996.06322 151.01711 
L 998.158301 310.647879 
L 999.205842 288.880047 
L 1000.253383 322.741119 
L 1003.396005 297.345315 
L 1006.538628 294.926667 
L 1008.633709 327.578415 
L 1010.728791 315.485175 
L 1011.776332 337.253007 
L 1013.871414 319.113147 
L 1017.014036 297.345315 
L 1027.489444 308.229231 
L 1031.679607 315.485175 
L 1033.774689 327.578415 
L 1035.869771 297.345315 
L 1040.059934 331.206387 
L 1041.107475 320.322471 
L 1045.297638 311.857203 
L 1046.345179 316.694499 
L 1048.440261 332.415711 
L 1052.630424 316.694499 
L 1053.677965 310.647879 
L 1054.725505 284.042751 
L 1055.773046 325.159767 
L 1056.820587 333.625035 
L 1057.868128 369.904755 
L 1059.96321 293.717343 
L 1063.105832 320.322471 
L 1066.248454 288.880047 
L 1068.343536 298.554639 
L 1069.391077 317.903823 
L 1070.438618 298.554639 
L 1071.486159 281.624103 
L 1072.533699 287.670723 
L 1077.771403 311.857203 
L 1078.818944 351.764895 
L 1079.866485 300.973287 
L 1080.914026 305.810583 
L 1083.009108 338.462331 
L 1084.056648 304.601259 
L 1086.15173 336.043683 
L 1087.199271 317.903823 
L 1088.246812 297.345315 
L 1090.341893 290.089371 
L 1091.389434 308.229231 
L 1093.484516 359.020839 
L 1099.769761 307.019907 
L 1100.817301 319.113147 
L 1101.864842 325.159767 
L 1102.912383 338.462331 
L 1103.959924 287.670723 
L 1105.007465 320.322471 
L 1106.055006 296.135991 
L 1107.102546 327.578415 
L 1108.150087 327.578415 
L 1110.245169 240.507086 
L 1111.29271 310.647879 
L 1112.34025 303.391935 
L 1113.387791 317.903823 
L 1116.530414 240.507086 
L 1117.577955 337.253007 
L 1117.577955 337.253007 
" clip-path="url(#pbc7d406b1e)" style="fill: none; stroke: #0173b2; stroke-width: 1.5; stroke-linecap: square"/>
   </g>
   <g id="line2d_29">
    <path d="M 645.137045 293.717343 
L 646.184586 323.950443 
L 647.232127 280.414779 
L 649.327209 290.089371 
L 650.37475 293.717343 
L 654.564913 315.485175 
L 655.612454 315.485175 
L 657.707535 307.019907 
L 658.755076 314.275851 
L 661.897699 299.763963 
L 671.325566 268.321538 
L 672.373107 233.251142 
L 673.420648 300.973287 
L 674.468188 43.387273 
L 675.515729 140.133193 
L 676.56327 296.135991 
L 680.753433 348.136923 
L 683.896056 293.717343 
L 685.991137 311.857203 
L 692.276382 337.253007 
L 693.323923 296.135991 
L 695.419005 346.927599 
L 699.609168 308.229231 
L 700.656709 332.415711 
L 701.70425 367.486107 
L 702.75179 310.647879 
L 705.894413 309.438555 
L 707.989495 315.485175 
L 709.037035 316.694499 
L 714.274739 333.625035 
L 716.369821 321.531795 
L 718.464903 296.135991 
L 719.512444 305.810583 
L 723.702607 302.182611 
L 724.750148 313.066527 
L 725.797688 332.415711 
L 731.035393 344.508951 
L 732.082933 323.950443 
L 733.130474 328.787739 
L 734.178015 211.48331 
L 735.225556 326.369091 
L 736.273097 235.66979 
L 737.320637 184.878182 
L 738.368178 209.064662 
L 740.46326 337.253007 
L 742.558342 340.880979 
L 743.605882 219.948578 
L 745.700964 300.973287 
L 749.891127 296.135991 
L 754.081291 338.462331 
L 755.128831 298.554639 
L 756.176372 373.532727 
L 758.271454 333.625035 
L 764.556699 338.462331 
L 766.65178 309.438555 
L 778.174729 336.043683 
L 785.507515 315.485175 
L 788.650138 340.880979 
L 792.840301 322.741119 
L 795.982923 307.019907 
L 797.030464 292.508019 
L 801.220627 331.206387 
L 805.410791 336.043683 
L 806.458331 313.066527 
L 809.600954 334.834359 
L 821.123903 305.810583 
L 822.171444 333.625035 
L 826.361607 329.997063 
L 827.409148 337.253007 
L 828.456689 336.043683 
L 832.646852 264.693566 
L 834.741934 273.158834 
L 836.837015 346.927599 
L 837.884556 305.810583 
L 838.932097 224.785874 
L 839.979638 356.602191 
L 841.027178 264.693566 
L 842.074719 240.507086 
L 843.12226 198.180746 
L 846.264883 338.462331 
L 847.312423 253.80965 
L 851.502587 326.369091 
L 852.550127 297.345315 
L 854.645209 316.694499 
L 858.835372 207.855338 
L 861.977995 161.901026 
L 864.073076 281.624103 
L 865.120617 251.391002 
L 867.215699 264.693566 
L 868.26324 262.274918 
L 869.310781 307.019907 
L 871.405862 326.369091 
L 872.453403 329.997063 
L 873.500944 267.112214 
L 874.548485 323.950443 
L 877.691107 309.438555 
L 879.786189 322.741119 
L 880.83373 187.29683 
L 882.928811 345.718275 
L 887.118975 323.950443 
L 891.309138 203.018042 
L 893.404219 329.997063 
L 899.689464 356.602191 
L 901.784546 233.251142 
L 904.927168 309.438555 
L 907.02225 331.206387 
L 908.069791 259.85627 
L 909.117332 200.599394 
L 910.164873 264.693566 
L 913.307495 245.344382 
L 914.355036 182.459534 
L 915.402577 311.857203 
L 916.450117 227.204522 
L 918.545199 288.880047 
L 923.782903 317.903823 
L 930.068148 313.066527 
L 933.210771 327.578415 
L 935.305852 362.648811 
L 936.353393 316.694499 
L 941.591097 308.229231 
L 942.638638 311.857203 
L 943.686179 326.369091 
L 949.971424 274.368159 
L 952.066505 311.857203 
L 953.114046 192.134126 
L 954.161587 344.508951 
L 955.209128 200.599394 
L 956.256669 242.925734 
L 957.304209 320.322471 
L 959.399291 310.647879 
L 961.494373 284.042751 
L 962.541913 298.554639 
L 963.589454 350.555571 
L 965.684536 277.996131 
L 966.732077 340.880979 
L 967.779618 281.624103 
L 968.827158 309.438555 
L 971.969781 282.833427 
L 973.017322 328.787739 
L 976.159944 349.346247 
L 979.302567 299.763963 
L 980.350107 343.299627 
L 982.445189 339.671655 
L 983.49273 212.692634 
L 984.540271 296.135991 
L 986.635352 329.997063 
L 987.682893 240.507086 
L 989.777975 144.97049 
L 992.920597 238.088438 
L 995.015679 281.624103 
L 997.11076 332.415711 
L 1001.300924 298.554639 
L 1002.348465 313.066527 
L 1004.443546 325.159767 
L 1005.491087 298.554639 
L 1007.586169 309.438555 
L 1009.68125 350.555571 
L 1012.823873 204.227366 
L 1014.918954 321.531795 
L 1015.966495 240.507086 
L 1018.061577 227.204522 
L 1019.109118 232.041818 
L 1020.156658 304.601259 
L 1021.204199 307.019907 
L 1022.25174 310.647879 
L 1023.299281 182.459534 
L 1024.346822 338.462331 
L 1025.394363 307.019907 
L 1026.441903 323.950443 
L 1028.536985 320.322471 
L 1029.584526 207.855338 
L 1030.632067 217.52993 
L 1032.727148 173.994266 
L 1034.82223 219.948578 
L 1036.917312 205.43669 
L 1037.964852 307.019907 
L 1039.012393 267.112214 
L 1042.155016 305.810583 
L 1043.202556 210.273986 
L 1044.250097 277.996131 
L 1047.39272 294.926667 
L 1049.487801 233.251142 
L 1050.535342 319.113147 
L 1051.582883 188.506154 
L 1058.915669 108.690769 
L 1061.01075 317.903823 
L 1062.058291 300.973287 
L 1064.153373 292.508019 
L 1065.200914 315.485175 
L 1067.295995 355.392867 
L 1073.58124 319.113147 
L 1074.628781 195.762098 
L 1075.676322 299.763963 
L 1076.723863 259.85627 
L 1081.961567 323.950443 
L 1085.104189 267.112214 
L 1089.294352 230.832494 
L 1092.436975 189.715478 
L 1094.532057 311.857203 
L 1095.579597 236.879114 
L 1096.627138 294.926667 
L 1097.674679 228.413846 
L 1098.72222 349.346247 
L 1109.197628 344.508951 
L 1114.435332 261.065594 
L 1115.482873 269.530862 
L 1115.482873 269.530862 
" clip-path="url(#pbc7d406b1e)" style="fill: none; stroke: #de8f05; stroke-width: 1.5; stroke-linecap: square"/>
   </g>
   <g id="patch_9">
    <path d="M 621.515 390.04 
L 621.515 26.88 
" style="fill: none; stroke: #000000; stroke-width: 0.8; stroke-linejoin: miter; stroke-linecap: square"/>
   </g>
   <g id="patch_10">
    <path d="M 1141.2 390.04 
L 1141.2 26.88 
" style="fill: none; stroke: #000000; stroke-width: 0.8; stroke-linejoin: miter; stroke-linecap: square"/>
   </g>
   <g id="patch_11">
    <path d="M 621.515 390.04 
L 1141.2 390.04 
" style="fill: none; stroke: #000000; stroke-width: 0.8; stroke-linejoin: miter; stroke-linecap: square"/>
   </g>
   <g id="patch_12">
    <path d="M 621.515 26.88 
L 1141.2 26.88 
" style="fill: none; stroke: #000000; stroke-width: 0.8; stroke-linejoin: miter; stroke-linecap: square"/>
   </g>
   <g id="text_31">
    <!-- T Interval for Class 0 vs Class 1 -->
    <g transform="translate(787.235313 20.88) scale(0.12 -0.12)">
     <use xlink:href="#DejaVuSans-54"/>
     <use xlink:href="#DejaVuSans-20" x="61.083984"/>
     <use xlink:href="#DejaVuSans-49" x="92.871094"/>
     <use xlink:href="#DejaVuSans-6e" x="122.363281"/>
     <use xlink:href="#DejaVuSans-74" x="185.742188"/>
     <use xlink:href="#DejaVuSans-65" x="224.951172"/>
     <use xlink:href="#DejaVuSans-72" x="286.474609"/>
     <use xlink:href="#DejaVuSans-76" x="327.587891"/>
     <use xlink:href="#DejaVuSans-61" x="386.767578"/>
     <use xlink:href="#DejaVuSans-6c" x="448.046875"/>
     <use xlink:href="#DejaVuSans-20" x="475.830078"/>
     <use xlink:href="#DejaVuSans-66" x="507.617188"/>
     <use xlink:href="#DejaVuSans-6f" x="542.822266"/>
     <use xlink:href="#DejaVuSans-72" x="604.003906"/>
     <use xlink:href="#DejaVuSans-20" x="645.117188"/>
     <use xlink:href="#DejaVuSans-43" x="676.904297"/>
     <use xlink:href="#DejaVuSans-6c" x="746.728516"/>
     <use xlink:href="#DejaVuSans-61" x="774.511719"/>
     <use xlink:href="#DejaVuSans-73" x="835.791016"/>
     <use xlink:href="#DejaVuSans-73" x="887.890625"/>
     <use xlink:href="#DejaVuSans-20" x="939.990234"/>
     <use xlink:href="#DejaVuSans-30" x="971.777344"/>
     <use xlink:href="#DejaVuSans-20" x="1035.400391"/>
     <use xlink:href="#DejaVuSans-76" x="1067.1875"/>
     <use xlink:href="#DejaVuSans-73" x="1126.367188"/>
     <use xlink:href="#DejaVuSans-20" x="1178.466797"/>
     <use xlink:href="#DejaVuSans-43" x="1210.253906"/>
     <use xlink:href="#DejaVuSans-6c" x="1280.078125"/>
     <use xlink:href="#DejaVuSans-61" x="1307.861328"/>
     <use xlink:href="#DejaVuSans-73" x="1369.140625"/>
     <use xlink:href="#DejaVuSans-73" x="1421.240234"/>
     <use xlink:href="#DejaVuSans-20" x="1473.339844"/>
     <use xlink:href="#DejaVuSans-31" x="1505.126953"/>
    </g>
   </g>
   <g id="legend_2">
    <g id="patch_13">
     <path d="M 1066.351562 64.23625 
L 1134.2 64.23625 
Q 1136.2 64.23625 1136.2 62.23625 
L 1136.2 33.88 
Q 1136.2 31.88 1134.2 31.88 
L 1066.351562 31.88 
Q 1064.351562 31.88 1064.351562 33.88 
L 1064.351562 62.23625 
Q 1064.351562 64.23625 1066.351562 64.23625 
z
" style="fill: #ffffff; opacity: 0.8; stroke: #cccccc; stroke-linejoin: miter"/>
    </g>
    <g id="line2d_30">
     <path d="M 1068.351562 39.978437 
L 1078.351562 39.978437 
L 1088.351562 39.978437 
" style="fill: none; stroke: #0173b2; stroke-width: 1.5; stroke-linecap: square"/>
    </g>
    <g id="text_32">
     <!-- Class 0 -->
     <g transform="translate(1096.351562 43.478437) scale(0.1 -0.1)">
      <use xlink:href="#DejaVuSans-43"/>
      <use xlink:href="#DejaVuSans-6c" x="69.824219"/>
      <use xlink:href="#DejaVuSans-61" x="97.607422"/>
      <use xlink:href="#DejaVuSans-73" x="158.886719"/>
      <use xlink:href="#DejaVuSans-73" x="210.986328"/>
      <use xlink:href="#DejaVuSans-20" x="263.085938"/>
      <use xlink:href="#DejaVuSans-30" x="294.873047"/>
     </g>
    </g>
    <g id="line2d_31">
     <path d="M 1068.351562 54.656563 
L 1078.351562 54.656563 
L 1088.351562 54.656563 
" style="fill: none; stroke: #de8f05; stroke-width: 1.5; stroke-linecap: square"/>
    </g>
    <g id="text_33">
     <!-- Class 1 -->
     <g transform="translate(1096.351562 58.156563) scale(0.1 -0.1)">
      <use xlink:href="#DejaVuSans-43"/>
      <use xlink:href="#DejaVuSans-6c" x="69.824219"/>
      <use xlink:href="#DejaVuSans-61" x="97.607422"/>
      <use xlink:href="#DejaVuSans-73" x="158.886719"/>
      <use xlink:href="#DejaVuSans-73" x="210.986328"/>
      <use xlink:href="#DejaVuSans-20" x="263.085938"/>
      <use xlink:href="#DejaVuSans-31" x="294.873047"/>
     </g>
    </g>
   </g>
  </g>
 </g>
 <defs>
  <clipPath id="pb5d0551805">
   <rect x="50.96" y="26.88" width="519.685" height="363.16"/>
  </clipPath>
  <clipPath id="pbc7d406b1e">
   <rect x="621.515" y="26.88" width="519.685" height="363.16"/>
  </clipPath>
 </defs>
</svg>
